<svg width="302" height="247" viewBox="0 0 302 247" fill="none" xmlns="http://www.w3.org/2000/svg">
<path d="M59.8193 133.9C57.1361 120.532 61.3604 105.323 73.1015 97.2314C72.436 112.007 77.4064 126.526 87.1331 138.219C90.9018 142.716 95.5965 147.352 95.4507 153.054C95.36 156.602 93.2989 159.907 90.5827 162.397C87.8664 164.888 84.5204 166.683 81.2144 168.45L80.6998 169.195C71.0086 159.019 62.5024 147.268 59.8193 133.9Z" fill="#F0F0F0"/>
<path d="M73.3151 97.4363C68.3822 107.714 67.0534 119.176 69.5172 130.197C70.0023 132.578 70.8877 134.873 72.1405 136.998C73.4329 139.03 75.2863 140.704 77.5085 141.845C79.5574 142.947 81.7904 143.853 83.5158 145.4C84.3865 146.204 85.0647 147.17 85.5061 148.235C85.9475 149.3 86.142 150.44 86.077 151.58C85.9944 154.424 84.8188 157.071 83.5727 159.622C82.189 162.455 80.7036 165.377 80.7933 168.562C80.8042 168.948 80.1604 168.941 80.1495 168.556C79.9934 163.015 84.2967 158.564 85.2556 153.248C85.703 150.767 85.35 148.145 83.4763 146.222C81.8379 144.54 79.5361 143.604 77.4511 142.504C75.2659 141.421 73.3987 139.857 72.0128 137.947C70.6477 135.889 69.6689 133.629 69.1182 131.265C67.7872 125.961 67.3603 120.496 67.8531 115.069C68.3787 108.872 70.0391 102.804 72.7625 97.1284C72.9313 96.7772 73.4827 97.0874 73.3151 97.4363Z" fill="white"/>
<path d="M68.4998 126.691C66.4576 126.825 64.4307 126.279 62.7812 125.15C61.1317 124.021 59.9669 122.383 59.495 120.528C59.4009 120.153 60.0234 119.999 60.1176 120.375C60.5536 122.103 61.6388 123.628 63.1771 124.677C64.7154 125.725 66.6056 126.227 68.5066 126.092C68.9197 126.063 68.9106 126.663 68.4998 126.691Z" fill="white"/>
<path d="M76.3908 141.412C79.1632 138.494 80.6522 134.71 80.5606 130.814C80.5512 130.429 81.1951 130.435 81.2045 130.821C81.2916 134.874 79.7335 138.809 76.8413 141.841C76.5654 142.129 76.1164 141.699 76.3908 141.412Z" fill="white"/>
<path d="M69.1339 109.243C69.9357 109.344 70.752 109.259 71.5096 108.994C72.2671 108.729 72.9421 108.293 73.4741 107.726C73.7459 107.434 74.1946 107.864 73.9245 108.154C73.3337 108.779 72.5876 109.259 71.7513 109.553C70.915 109.848 70.0141 109.947 69.1271 109.842C69.0427 109.839 68.9627 109.806 68.9035 109.749C68.8444 109.693 68.8104 109.618 68.8086 109.539C68.8099 109.46 68.8448 109.384 68.9057 109.329C68.9666 109.273 69.0487 109.242 69.1339 109.243Z" fill="white"/>
<path d="M121.116 108.289C120.952 108.476 120.787 108.663 120.625 108.854C118.432 111.375 116.462 114.058 114.736 116.876C114.599 117.092 114.463 117.313 114.333 117.532C110.251 124.363 107.568 131.839 106.418 139.582C105.964 142.663 105.762 145.772 105.814 148.882C105.887 153.177 106.333 157.828 104.918 161.779C104.776 162.192 104.606 162.597 104.409 162.991L81.7161 169.722C81.6563 169.713 81.5979 169.709 81.5378 169.701L80.6449 170.008C80.6302 169.848 80.6186 169.681 80.6039 169.521C80.5949 169.428 80.591 169.334 80.5821 169.241C80.5777 169.178 80.5736 169.116 80.5658 169.06C80.5642 169.039 80.5629 169.018 80.563 169.002C80.5553 168.946 80.5544 168.893 80.5483 168.842C80.4808 167.912 80.4184 166.98 80.3665 166.045C80.3649 166.04 80.3649 166.04 80.3683 166.034C79.9788 158.913 80.2244 151.699 81.6384 144.75C81.6811 144.54 81.7218 144.327 81.7748 144.114C82.4308 140.985 83.3605 137.911 84.5545 134.923C85.214 133.288 85.9619 131.686 86.7954 130.122C88.9574 126.085 91.7881 122.39 95.1837 119.171C101.954 112.757 110.852 108.429 120.387 108.293C120.631 108.29 120.87 108.288 121.116 108.289Z" fill="#F0F0F0"/>
<path d="M121.156 108.572C110.571 114.013 102.097 122.421 96.9365 132.601C95.7838 134.774 95.0063 137.103 94.6326 139.501C94.3497 141.849 94.7472 144.224 95.7839 146.38C96.707 148.408 97.9037 150.384 98.2811 152.586C98.4563 153.716 98.373 154.867 98.0366 155.965C97.7002 157.063 97.1184 158.082 96.3292 158.956C94.4238 161.18 91.7733 162.635 89.1282 163.973C86.1913 165.46 83.1155 166.96 81.1274 169.554C80.8865 169.868 80.3768 169.501 80.6174 169.188C84.0764 164.676 90.3904 163.535 94.5947 159.827C96.5565 158.097 97.9701 155.806 97.7178 153.22C97.4973 150.959 96.2652 148.921 95.3114 146.875C94.267 144.785 93.7881 142.49 93.9165 140.188C94.1578 137.779 94.8376 135.427 95.9269 133.231C98.2943 128.25 101.488 123.647 105.392 119.589C109.819 114.936 115.069 111.022 120.914 108.017C121.276 107.831 121.516 108.388 121.156 108.572Z" fill="white"/>
<path d="M98.3908 129.232C96.6736 128.194 95.4086 126.622 94.8217 124.796C94.2348 122.97 94.3642 121.01 95.1869 119.264C95.3546 118.912 95.9511 119.138 95.7831 119.491C95.0139 121.115 94.8935 122.941 95.4438 124.64C95.994 126.34 97.1786 127.8 98.7838 128.757C99.1324 128.966 98.7374 129.44 98.3908 129.232Z" fill="white"/>
<path d="M95.1707 145.409C99.2719 144.632 102.908 142.446 105.354 139.284C105.596 138.971 106.106 139.337 105.864 139.65C103.312 142.935 99.5231 145.204 95.2534 146.003C94.8464 146.079 94.7659 145.484 95.1707 145.409Z" fill="white"/>
<path d="M110.181 115.656C110.755 116.187 111.462 116.576 112.239 116.789C113.015 117.002 113.835 117.033 114.627 116.878C115.033 116.797 115.113 117.392 114.71 117.472C113.834 117.64 112.928 117.605 112.07 117.371C111.212 117.137 110.428 116.712 109.788 116.131C109.723 116.081 109.68 116.01 109.669 115.932C109.658 115.854 109.68 115.775 109.729 115.711C109.782 115.648 109.858 115.607 109.943 115.597C110.028 115.587 110.113 115.608 110.181 115.656Z" fill="white"/>
<path d="M137.768 35.1871C137.845 35.4982 137.894 35.8144 137.917 36.1328L164.524 50.4221L170.991 46.9562L177.886 55.3586L167.077 62.53C166.204 63.1094 165.152 63.4094 164.08 63.3851C163.009 63.3608 161.974 63.0135 161.132 62.3952L133.696 42.2455C132.457 42.6721 131.109 42.7378 129.83 42.4336C128.55 42.1295 127.401 41.47 126.534 40.5429C125.667 39.6157 125.124 38.4649 124.977 37.2434C124.83 36.022 125.086 34.7878 125.711 33.705C126.336 32.6222 127.3 31.7422 128.475 31.1819C129.65 30.6217 130.981 30.4078 132.29 30.5687C133.599 30.7296 134.824 31.2577 135.803 32.0827C136.781 32.9077 137.467 33.9905 137.768 35.1871Z" fill="#FFB6B6"/>
<path d="M164.893 48.8444C164.978 48.4799 165.145 48.1366 165.385 47.8381C165.625 47.5395 165.931 47.2926 166.283 47.1142L178.567 40.8836C180.203 39.7342 182.262 39.2357 184.292 39.4973C186.322 39.7589 188.158 40.7594 189.397 42.2792C190.636 43.7991 191.177 45.7143 190.901 47.6048C190.625 49.4954 189.555 51.207 187.926 52.3642L178.08 61.6751C177.799 61.9408 177.46 62.147 177.086 62.2797C176.712 62.4123 176.311 62.4683 175.911 62.4439C175.512 62.4194 175.122 62.315 174.77 62.1378C174.417 61.9607 174.11 61.7149 173.869 61.4172L165.392 50.9547C165.151 50.6571 164.981 50.3145 164.895 49.9503C164.809 49.5861 164.808 49.2089 164.893 48.8444Z" fill="#3F3D56"/>
<path d="M187.165 12.6214C188.932 7.37772 192.951 2.56845 198.51 0.795812C204.068 -0.976817 212.208 1.72348 216.387 5.60059C224.031 12.6926 225.896 37.0563 220.645 44.7555C219.6 44.704 215.995 44.666 214.938 44.6291L213.443 39.9886V44.5833C205.19 44.3459 196.599 44.4946 188.003 44.6483C187.233 39.1972 185.397 17.865 187.165 12.6214Z" fill="#2F2E41"/>
<path d="M184.799 232.722H177.273L173.692 205.695L184.801 205.696L184.799 232.722Z" fill="#FFB6B6"/>
<path d="M250.69 228.364L243.406 230.131L232.618 204.819L243.368 202.211L250.69 228.364Z" fill="#FFB6B6"/>
<path d="M208.885 66.7271L210.591 70.8549L210.249 74.9828L176.872 85.745L178.528 67.6796L182.28 63.5513L208.885 66.7271Z" fill="#FFB6B6"/>
<path d="M198.657 29.5802C205.241 29.5802 210.578 24.6115 210.578 18.4823C210.578 12.3532 205.241 7.38452 198.657 7.38452C192.073 7.38452 186.736 12.3532 186.736 18.4823C186.736 24.6115 192.073 29.5802 198.657 29.5802Z" fill="#FFB7B7"/>
<path d="M190.465 4.03122C192.756 2.73124 195.38 2.02803 198.062 1.99511C200.745 1.96219 203.387 2.60076 205.714 3.84407C208.041 5.08738 209.966 6.88976 211.288 9.06274C212.61 11.2357 213.281 13.6995 213.23 16.1965C206.732 17.7426 199.807 18.3893 192.469 16.5688L190.791 12.7469L189.802 16.5717C187.557 18.0418 185.39 18.0392 183.301 16.5637C183.213 14.0738 183.828 11.6059 185.085 9.4066C186.342 7.20733 188.197 5.35378 190.465 4.03122Z" fill="#2F2E41"/>
<path d="M188.167 246.027H182.826L181.873 241.333L179.431 246.027H165.265C164.586 246.027 163.925 245.825 163.378 245.45C162.831 245.076 162.427 244.548 162.225 243.945C162.023 243.341 162.034 242.693 162.255 242.096C162.477 241.498 162.897 240.982 163.456 240.623L174.768 233.35V228.605L186.667 229.266L188.167 246.027Z" fill="#2F2E41"/>
<path d="M258.212 240.288L253.044 241.542L250.849 237.224L249.758 242.339L236.051 245.665C235.394 245.825 234.699 245.785 234.069 245.551C233.438 245.317 232.904 244.901 232.545 244.364C232.186 243.828 232.021 243.199 232.073 242.568C232.125 241.938 232.393 241.34 232.836 240.861L241.812 231.167L240.526 226.575L252.219 224.421L258.212 240.288Z" fill="#2F2E41"/>
<path d="M249.766 211.368L227.703 169.155L220.777 117.776C225.552 109.52 216.684 92.7212 216.684 92.7212V85.668L182.33 91.7013C175.303 109.542 171.896 128.442 172.281 147.441L173.665 215.738H173.231C172.51 215.738 171.819 216.004 171.31 216.479C170.8 216.953 170.514 217.596 170.514 218.267C170.514 218.938 170.8 219.581 171.31 220.056C171.819 220.53 172.51 220.797 173.231 220.797H186.816C187.537 220.797 188.228 220.53 188.737 220.056C189.247 219.581 189.533 218.938 189.533 218.267C189.533 217.596 189.247 216.953 188.737 216.479C188.228 216.004 187.537 215.738 186.816 215.738H186.466L196.218 128.852L207.558 171.728L234.961 211.206C234.262 211.256 233.612 211.557 233.146 212.045C232.68 212.533 232.436 213.17 232.464 213.822C232.492 214.474 232.791 215.091 233.297 215.543C233.803 215.994 234.477 216.245 235.179 216.244H248.764C249.395 216.244 250.008 216.04 250.495 215.665C250.982 215.291 251.314 214.77 251.432 214.192C251.551 213.614 251.45 213.016 251.145 212.5C250.841 211.985 250.353 211.584 249.766 211.368Z" fill="#2F2E41"/>
<path d="M219.789 97.0456C219.676 96.6329 219.426 96.264 219.074 95.9918C218.722 95.7197 218.287 95.5582 217.83 95.5306C217.377 90.7111 214.385 59.8021 214.272 58.8953L214.267 58.8569L213.401 41.6283C213.369 41.0026 213.091 40.4096 212.62 39.9626C212.149 39.5156 211.517 39.2459 210.845 39.2051L206.27 38.9266C206.207 38.9247 206.147 38.9001 206.104 38.8581C206.06 38.816 206.036 38.7598 206.036 38.7014C206.036 38.231 205.936 37.7651 205.743 37.3305C205.549 36.8959 205.266 36.501 204.909 36.1684C204.551 35.8357 204.127 35.5719 203.66 35.3918C203.193 35.2118 202.693 35.1191 202.188 35.1191H188.64C187.762 35.1195 186.915 35.4179 186.257 35.9585C185.599 36.4991 185.176 37.2446 185.067 38.0551C185.061 38.1109 185.032 38.1625 184.987 38.1997C184.942 38.2368 184.884 38.2568 184.823 38.2555L184.822 38.2554C183.282 38.2259 181.783 38.7111 180.595 39.6229C179.407 40.5348 178.609 41.8128 178.347 43.2252C176.495 53.257 172.783 76.0254 174.618 88.6833C175.257 93.0897 174.967 99.717 174.725 103.404C174.701 103.76 174.753 104.117 174.877 104.455C175.002 104.793 175.197 105.104 175.451 105.371C174.911 105.516 174.452 105.851 174.171 106.305C173.891 106.758 173.811 107.296 173.948 107.803C174.088 108.324 174.446 108.771 174.941 109.046C175.435 109.321 176.028 109.402 176.587 109.271L218.213 99.5023C218.772 99.3711 219.252 99.0386 219.548 98.5779C219.843 98.1172 219.93 97.566 219.789 97.0456Z" fill="#3F3D56"/>
<path d="M169.66 169.476C169.653 168.345 169.215 167.253 168.424 166.393C167.634 165.534 166.542 164.963 165.343 164.781L91.541 153.499C90.8333 153.39 90.109 153.42 89.4145 153.587L72.1186 157.751L62.1947 160.142L43.8807 164.549C42.7751 164.817 41.7961 165.418 41.0972 166.259C40.3982 167.1 40.0189 168.133 40.0186 169.197V241.188C40.0241 242.286 40.4314 243.349 41.1734 244.202C41.9155 245.054 42.9477 245.646 44.0998 245.879L119.272 245.087C119.625 245.158 119.985 245.192 120.346 245.191C120.872 245.192 121.395 245.118 121.897 244.971L166.559 246.006C167.613 245.699 168.532 245.085 169.182 244.254C169.831 243.422 170.175 242.418 170.163 241.39L169.66 169.476Z" fill="white"/>
<path d="M169.66 169.476C169.653 168.345 169.215 167.253 168.424 166.393C167.634 165.534 166.542 164.963 165.343 164.781L91.541 153.499C90.8333 153.39 90.109 153.42 89.4145 153.587L72.1186 157.751L62.1947 160.142L43.8807 164.549C42.7751 164.817 41.7961 165.418 41.0972 166.259C40.3982 167.1 40.0189 168.133 40.0186 169.197V241.188C40.0241 242.286 40.4314 243.349 41.1734 244.202C41.9155 245.054 42.9477 245.646 44.0998 245.879L119.272 245.087C119.625 245.158 119.985 245.192 120.346 245.191C120.872 245.192 121.395 245.118 121.897 244.971L166.559 246.006C167.613 245.699 168.532 245.085 169.182 244.254C169.831 243.422 170.175 242.418 170.163 241.39L169.66 169.476ZM166.172 244.862L121.51 245.851C120.873 246.035 120.196 246.066 119.543 245.939L44.3662 244.708C43.5024 244.532 42.7286 244.088 42.1725 243.448C41.6164 242.808 41.3113 242.011 41.3074 241.188V169.197C41.3079 168.46 41.5512 167.74 42.0045 167.136C42.4577 166.532 43.099 166.072 43.842 165.817C43.96 165.776 44.0805 165.741 44.2029 165.713L63.5781 161.05L75.0356 158.29L89.7367 154.751C90.0519 154.673 90.377 154.634 90.7033 154.635C90.9134 154.635 91.1232 154.651 91.3305 154.683L165.132 165.965C165.726 166.056 166.289 166.274 166.777 166.602C167.264 166.931 167.663 167.36 167.942 167.857C168.221 168.36 168.368 168.918 168.371 169.484L168.874 241.398C168.883 242.169 168.626 242.923 168.139 243.546C167.652 244.17 166.962 244.631 166.172 244.862Z" fill="#CCCCCC"/>
<path d="M167.942 167.857C167.892 167.888 167.837 167.911 167.779 167.925L146.071 173.388L139.313 175.088L120.093 179.923C120.038 179.936 119.982 179.942 119.925 179.943C119.886 179.942 119.848 179.94 119.809 179.935L42.3085 166.781L42.0507 166.737C41.8828 166.708 41.7342 166.618 41.6374 166.487C41.5406 166.356 41.5035 166.195 41.5342 166.038C41.5648 165.882 41.6608 165.743 41.801 165.652C41.9413 165.561 42.1145 165.526 42.2827 165.554L43.8422 165.818L119.899 178.727L136.465 174.56L145.731 172.228L167.104 166.849L167.444 166.765C167.59 166.729 167.746 166.743 167.883 166.802C168.021 166.862 168.131 166.965 168.195 167.093C168.212 167.124 168.225 167.156 168.234 167.189C168.269 167.315 168.26 167.448 168.207 167.569C168.155 167.689 168.062 167.79 167.942 167.857Z" fill="#CCCCCC"/>
<path d="M120.57 245.331C120.217 245.331 119.929 245.066 119.925 246.76L119.281 181.372C119.278 179.017 119.564 178.746 119.92 178.743H119.925C120.279 178.743 120.566 179.008 120.57 181.361L121.214 246.749C121.218 245.057 120.931 245.328 120.576 245.331H120.57Z" fill="#CCCCCC"/>
<path d="M146.254 246.09L139.314 246.159L136.465 174.56L63.7891 161.098C63.7179 161.087 63.6476 161.071 63.5787 161.05C63.0204 160.902 62.5326 160.582 62.1953 160.143L72.1192 157.751L75.0362 158.291L143.996 171.061C144.359 171.127 144.702 171.266 145.001 171.468C145.301 171.669 145.55 171.929 145.732 172.228C145.947 172.576 146.25 245.674 146.254 246.09Z" fill="#CCCCCC"/>
<path d="M180.952 38.4275C180.946 37.5749 180.616 36.7517 180.02 36.104C179.425 35.4563 178.602 35.0258 177.698 34.889L122.077 26.3863C121.544 26.3041 120.998 26.3267 120.474 26.4526L107.439 29.5903L99.96 31.3927L86.1575 34.7142C85.3243 34.9157 84.5865 35.3688 84.0597 36.0027C83.533 36.6365 83.2471 37.4152 83.2468 38.2166V80.6547C83.251 81.4819 83.558 82.283 84.1172 82.9258C84.6764 83.5685 85.4544 84.0146 86.3227 84.1902L142.976 95.4117C143.242 95.4649 143.514 95.4911 143.786 95.49C144.182 95.4907 144.576 95.4348 144.955 95.3243L178.614 85.4291C179.408 85.1983 180.102 84.7353 180.591 84.1087C181.08 83.4821 181.34 82.7254 181.331 81.9508L180.952 38.4275Z" fill="white"/>
<path d="M123.672 29.5032C123.632 29.5031 123.591 29.508 123.552 29.5176L89.2351 37.7792C89.131 37.8043 89.0389 37.8609 88.9731 37.94C88.9073 38.0191 88.8716 38.1163 88.8716 38.2163V80.6538C88.872 80.7572 88.9103 80.8573 88.9801 80.9376C89.0499 81.018 89.1471 81.0737 89.2556 81.0956L145.909 92.3169C145.991 92.333 146.077 92.3291 146.157 92.3057L179.817 82.4108C179.916 82.382 180.002 82.3241 180.063 82.2458C180.124 82.1676 180.157 82.073 180.155 81.9763L179.778 38.4533C179.777 38.3468 179.736 38.244 179.662 38.1631C179.587 38.0823 179.484 38.0286 179.371 38.0115L123.751 29.5091C123.725 29.5052 123.699 29.5032 123.672 29.5032Z" fill="#334C40"/>
<path d="M183.177 38.4275C183.171 37.5749 182.841 36.7517 182.245 36.104C181.65 35.4563 180.827 35.0258 179.923 34.889L124.302 26.3863C123.768 26.3041 123.222 26.3267 122.699 26.4526L109.664 29.5903L102.185 31.3927L88.3824 34.7142C87.5492 34.9157 86.8114 35.3688 86.2846 36.0027C85.7578 36.6365 85.4719 37.4152 85.4717 38.2166V80.6547C85.4758 81.4819 85.7829 82.283 86.3421 82.9258C86.9013 83.5685 87.6792 84.0146 88.5475 84.1902L145.201 95.4117C145.467 95.4649 145.739 95.4911 146.011 95.49C146.407 95.4907 146.801 95.4348 147.18 95.3243L180.839 85.4291C181.633 85.1983 182.327 84.7353 182.816 84.1087C183.305 83.4821 183.565 82.7254 183.555 81.9508L183.177 38.4275ZM180.548 84.567L146.888 94.4622C146.408 94.6015 145.898 94.6243 145.405 94.5285L88.7482 83.3072C88.0972 83.175 87.5141 82.8402 87.095 82.358C86.6759 81.8758 86.4459 81.275 86.443 80.6548V38.2166C86.4434 37.6612 86.6268 37.1192 86.9684 36.6638C87.3099 36.2084 87.7933 35.8614 88.3533 35.6697C88.4422 35.6386 88.533 35.6124 88.6252 35.5913L103.227 32.0769L111.862 29.9972L122.942 27.3298C123.179 27.2707 123.424 27.2413 123.67 27.2423C123.829 27.2423 123.987 27.2544 124.143 27.2785L179.764 35.7812C180.212 35.8496 180.636 36.014 181.003 36.2615C181.371 36.5089 181.672 36.8326 181.882 37.2069C182.092 37.5864 182.203 38.0067 182.205 38.4336L182.584 81.9569C182.591 82.5379 182.397 83.1056 182.03 83.5758C181.663 84.0459 181.143 84.3935 180.548 84.567Z" fill="#5C8A73"/>
<path d="M181.882 37.2073C181.844 37.2304 181.803 37.2477 181.759 37.2585L165.399 41.3757L160.306 42.6567L145.82 46.3007C145.779 46.3101 145.736 46.3152 145.694 46.3158C145.665 46.3152 145.635 46.3132 145.606 46.3097L87.1978 36.3964L87.0035 36.3633C86.8769 36.3412 86.7648 36.2734 86.6918 36.1746C86.6188 36.0758 86.5907 35.9542 86.6139 35.8362C86.637 35.7182 86.7094 35.6136 86.8152 35.5451C86.9209 35.4767 87.0516 35.4501 87.1784 35.4711L88.3537 35.67L145.674 45.3995L158.159 42.2588L165.143 40.5016L181.251 36.4477L181.506 36.3844C181.617 36.3572 181.734 36.3671 181.838 36.4123C181.941 36.4575 182.025 36.535 182.073 36.6315C182.085 36.6546 182.095 36.6788 182.102 36.7039C182.129 36.7986 182.122 36.8989 182.082 36.9897C182.042 37.0804 181.972 37.1568 181.882 37.2073Z" fill="#5C8A73"/>
<path d="M146.18 95.5957C146.052 95.5957 145.929 95.5487 145.838 95.4648C145.747 95.3809 145.695 95.2669 145.694 95.1477L145.208 45.8676C145.207 45.7477 145.257 45.6323 145.347 45.5468C145.438 45.4612 145.561 45.4125 145.689 45.4114H145.694C145.822 45.4114 145.945 45.4584 146.036 45.5423C146.127 45.6262 146.178 45.7402 146.18 45.8594L146.665 95.1395C146.666 95.2594 146.616 95.3748 146.526 95.4604C146.436 95.5459 146.313 95.5946 146.184 95.5957H146.18Z" fill="#5C8A73"/>
<path d="M165.398 89.6008L160.305 90.8818L158.159 42.2587L103.386 32.1133C103.332 32.1045 103.279 32.0924 103.227 32.0772C102.807 31.9656 102.439 31.7244 102.185 31.393L109.664 29.5906L111.862 29.9975L163.834 39.6214C164.108 39.6717 164.366 39.7763 164.592 39.9282C164.818 40.0801 165.005 40.2757 165.142 40.5015C165.304 40.7637 165.395 89.2873 165.398 89.6008Z" fill="#5C8A73"/>
<path d="M163.117 61.8775C163.377 62.0849 163.62 62.3111 163.842 62.554L194.352 59.2369L197.319 52.8628L208.238 55.7742L204.163 67.5335C203.834 68.4835 203.182 69.3085 202.307 69.8845C201.431 70.4606 200.378 70.7566 199.306 70.7283L164.374 69.8038C163.654 70.8341 162.614 71.6359 161.392 72.1026C160.171 72.5693 158.826 72.6788 157.536 72.4165C156.246 72.1541 155.073 71.5324 154.171 70.6341C153.27 69.7357 152.684 68.6033 152.492 67.3873C152.299 66.1714 152.508 64.9296 153.092 63.8272C153.676 62.7247 154.606 61.8139 155.76 61.2157C156.913 60.6176 158.235 60.3605 159.549 60.4788C160.863 60.597 162.108 61.0848 163.117 61.8775Z" fill="#FFB6B6"/>
<path d="M192.361 57.7658C192.195 57.4265 192.11 57.0578 192.111 56.6849C192.112 56.312 192.199 55.9438 192.367 55.6053L198.229 43.781C198.805 41.9501 200.137 40.4065 201.934 39.4886C203.731 38.5708 205.845 38.3536 207.813 38.8848C209.782 39.4159 211.443 40.6521 212.434 42.3221C213.425 43.9921 213.664 45.9598 213.099 47.7935L211.168 60.7343C211.113 61.1037 210.973 61.4576 210.758 61.772C210.542 62.0864 210.257 62.3539 209.92 62.5563C209.584 62.7587 209.205 62.8913 208.808 62.9449C208.412 62.9986 208.008 62.9721 207.623 62.8672L194.115 59.1818C193.73 59.0771 193.374 58.8964 193.072 58.652C192.769 58.4077 192.527 58.1054 192.361 57.7658Z" fill="#3F3D56"/>
<path d="M301.419 246.616H0.579535C0.425677 246.616 0.278268 246.552 0.169631 246.439C0.0609943 246.326 0 246.173 0 246.014C0 245.854 0.0609943 245.701 0.169631 245.588C0.278268 245.476 0.425677 245.412 0.579535 245.411H301.419C301.573 245.411 301.721 245.475 301.83 245.588C301.939 245.701 302 245.854 302 246.014C302 246.173 301.939 246.327 301.83 246.44C301.721 246.553 301.573 246.616 301.419 246.616Z" fill="#CACACA"/>
<path d="M44.376 182.616C55.1233 182.616 63.8357 174.506 63.8357 164.501C63.8357 154.496 55.1233 146.385 44.376 146.385C33.6287 146.385 24.9163 154.496 24.9163 164.501C24.9163 174.506 33.6287 182.616 44.376 182.616Z" fill="#334C40"/>
<path d="M41.7214 173.929C41.3853 173.929 41.0539 173.856 40.7534 173.716C40.4528 173.576 40.1914 173.373 39.9898 173.123L34.6809 166.533C34.3365 166.106 34.1886 165.568 34.2698 165.039C34.351 164.51 34.6547 164.033 35.1139 163.712C35.5732 163.391 36.1505 163.254 36.7188 163.329C37.2871 163.405 37.7999 163.688 38.1443 164.115L41.6176 168.426L50.5382 155.969C50.6955 155.748 50.8981 155.558 51.1344 155.41C51.3707 155.262 51.6361 155.159 51.9153 155.107C52.1945 155.054 52.4821 155.054 52.7615 155.105C53.041 155.156 53.3069 155.258 53.5438 155.405C53.7808 155.552 53.9843 155.742 54.1426 155.962C54.3009 156.182 54.411 156.43 54.4664 156.69C54.5218 156.95 54.5216 157.218 54.4656 157.478C54.4097 157.738 54.2992 157.985 54.1404 158.205L43.5227 173.032C43.3306 173.3 43.0722 173.521 42.7693 173.677C42.4664 173.833 42.1277 173.919 41.7816 173.928C41.7615 173.929 41.7415 173.929 41.7214 173.929Z" fill="white"/>
<path d="M108.566 68.2787C108.506 68.2786 108.445 68.2723 108.386 68.2599L91.541 64.7189C91.3304 64.6744 91.1473 64.5538 91.032 64.3838C90.9168 64.2137 90.8787 64.008 90.9262 63.8119C90.9738 63.6157 91.103 63.4451 91.2855 63.3376C91.468 63.2301 91.689 63.1944 91.8997 63.2383L108.745 66.7794C108.941 66.8205 109.113 66.9273 109.229 67.0793C109.346 67.2314 109.398 67.418 109.376 67.6035C109.354 67.789 109.259 67.9604 109.11 68.085C108.96 68.2095 108.767 68.2785 108.566 68.2787Z" fill="white"/>
<path d="M62.404 210.799C62.3448 210.811 62.2843 210.816 62.2238 210.815L44.9567 210.544C44.7408 210.54 44.5354 210.457 44.3854 210.313C44.2355 210.168 44.1533 209.974 44.1569 209.773C44.1604 209.572 44.2495 209.38 44.4046 209.241C44.5596 209.101 44.7679 209.024 44.9838 209.027L62.2509 209.297C62.4513 209.301 62.6435 209.372 62.7907 209.499C62.9379 209.626 63.0297 209.799 63.0487 209.985C63.0676 210.17 63.0123 210.356 62.8934 210.506C62.7745 210.657 62.6003 210.761 62.404 210.799Z" fill="#E6E6E6"/>
<path d="M68.3811 219.398C68.3218 219.41 68.2614 219.415 68.2009 219.414L50.9338 219.143C50.7179 219.14 50.5124 219.056 50.3625 218.912C50.2125 218.767 50.1303 218.573 50.1339 218.372C50.1375 218.171 50.2266 217.98 50.3816 217.84C50.5366 217.7 50.7449 217.623 50.9608 217.626L68.2279 217.896C68.4284 217.9 68.6206 217.972 68.7677 218.098C68.9149 218.225 69.0068 218.398 69.0257 218.584C69.0447 218.769 68.9894 218.955 68.8705 219.106C68.7516 219.256 68.5773 219.36 68.3811 219.398Z" fill="#E6E6E6"/>
</svg>
