<svg width="302" height="199" viewBox="0 0 302 199" fill="none" xmlns="http://www.w3.org/2000/svg">
<path d="M31.6315 39.819C30.7154 39.8155 29.8242 39.5315 29.0869 39.0083L22.955 34.7219C22.4462 34.3644 21.8325 34.1717 21.2026 34.1717C20.5726 34.1717 19.9589 34.3644 19.4501 34.7219L13.3182 39.0083C12.5787 39.5252 11.6881 39.8037 10.774 39.8037C9.85989 39.8037 8.96925 39.5254 8.2297 39.0084C7.49015 38.4915 6.93965 37.7626 6.65709 36.9262C6.37453 36.0898 6.37443 35.1888 6.65678 34.3523L8.99904 27.4166C9.19485 26.8405 9.19549 26.2194 9.00085 25.6428C8.80622 25.0663 8.42636 24.5641 7.91604 24.2086L1.78411 19.9222C1.04462 19.4052 0.494222 18.6762 0.211793 17.8397C-0.0706369 17.0032 -0.0705945 16.1022 0.211902 15.2657C0.494398 14.4292 1.04485 13.7003 1.78438 13.1833C2.5239 12.6664 3.41454 12.3879 4.32864 12.3879H11.908C12.5379 12.389 13.1519 12.1976 13.6615 11.8414C14.1711 11.4852 14.55 10.9825 14.7436 10.4057L17.0858 3.47011C17.3682 2.63352 17.9187 1.90443 18.6582 1.38736C19.3978 0.870288 20.2885 0.591797 21.2027 0.591797C22.1169 0.591797 23.0077 0.870288 23.7472 1.38736C24.4868 1.90443 25.0372 2.63352 25.3196 3.47011L27.6616 10.4057C27.8552 10.9825 28.2342 11.4852 28.7439 11.8414C29.2535 12.1976 29.8675 12.389 30.4975 12.3879H38.0768C38.9909 12.3879 39.8816 12.6664 40.6211 13.1833C41.3606 13.7003 41.9111 14.4292 42.1936 15.2657C42.4761 16.1022 42.4761 17.0032 42.1937 17.8397C41.9112 18.6762 41.3608 19.4052 40.6214 19.9222L34.4894 24.2086C33.979 24.564 33.599 25.0662 33.4044 25.6427C33.2097 26.2193 33.2103 26.8404 33.4061 27.4166L35.7484 34.3523C36.0412 35.1879 36.0463 36.0921 35.763 36.9307C35.4797 37.7694 34.9231 38.4979 34.1757 39.0083C33.4385 39.5315 32.5475 39.8154 31.6315 39.819Z" fill="#334C40"/>
<path d="M93.7692 39.819C92.8532 39.8154 91.9621 39.5315 91.225 39.0083L85.093 34.7219C84.5838 34.3653 83.9702 34.1732 83.3404 34.1732C82.7106 34.1732 82.097 34.3653 81.5878 34.7219L75.4559 39.0083C74.7164 39.5253 73.8258 39.8037 72.9117 39.8038C71.9976 39.8038 71.107 39.5254 70.3674 39.0085C69.6279 38.4916 69.0774 37.7626 68.7949 36.9262C68.5124 36.0898 68.5124 35.1887 68.7948 34.3523L71.1367 27.4166C71.3326 26.8405 71.3332 26.2194 71.1386 25.6428C70.9439 25.0663 70.5641 24.5641 70.0537 24.2086L63.9218 19.9222C63.1823 19.4052 62.6319 18.6762 62.3495 17.8397C62.0671 17.0032 62.0671 16.1022 62.3496 15.2657C62.6321 14.4292 63.1825 13.7003 63.9221 13.1833C64.6616 12.6664 65.5522 12.3879 66.4663 12.3879H74.0457C74.6756 12.389 75.2896 12.1976 75.7992 11.8414C76.3088 11.4852 76.6877 10.9825 76.8813 10.4057L79.2236 3.47011C79.506 2.63352 80.0564 1.90443 80.796 1.38736C81.5355 0.870288 82.4263 0.591797 83.3405 0.591797C84.2547 0.591797 85.1454 0.870288 85.885 1.38736C86.6245 1.90443 87.175 2.63352 87.4573 3.47011L89.7996 10.4057C89.9932 10.9825 90.3721 11.4852 90.8817 11.8414C91.3913 12.1976 92.0053 12.389 92.6352 12.3879H100.215C101.129 12.3879 102.019 12.6664 102.759 13.1833C103.498 13.7003 104.049 14.4292 104.331 15.2657C104.614 16.1022 104.614 17.0032 104.331 17.8397C104.049 18.6762 103.499 19.4052 102.759 19.9222L96.6271 24.2086C96.1168 24.5641 95.7369 25.0663 95.5423 25.6428C95.3477 26.2194 95.3483 26.8405 95.5441 27.4166L97.8861 34.3523C98.1788 35.1879 98.184 36.092 97.9008 36.9307C97.6175 37.7693 97.061 38.4979 96.3137 39.0083C95.5764 39.5315 94.6853 39.8154 93.7692 39.819Z" fill="#334C40"/>
<path d="M134.509 40.0602C133.503 40.0563 132.524 39.7447 131.714 39.1706C130.893 38.6098 130.282 37.8093 129.971 36.888C129.659 35.9666 129.665 34.9732 129.987 34.0551L132.329 27.1196C132.497 26.6259 132.497 26.0937 132.33 25.5997C132.164 25.1057 131.838 24.6754 131.401 24.3708L125.269 20.084C124.456 19.5161 123.852 18.7153 123.541 17.7965C123.231 16.8776 123.231 15.8878 123.541 14.969C123.852 14.0502 124.456 13.2494 125.269 12.6816C126.081 12.1137 127.059 11.8079 128.064 11.8079H135.643C136.183 11.8089 136.709 11.6448 137.146 11.3395C137.583 11.0341 137.907 10.6031 138.073 10.1088L140.416 3.17333C140.726 2.25451 141.331 1.45378 142.143 0.885918C142.955 0.318056 143.934 0.012207 144.938 0.012207C145.942 0.012207 146.92 0.318056 147.733 0.885918C148.545 1.45378 149.15 2.25451 149.46 3.17333L151.802 10.1088C151.968 10.6031 152.293 11.0341 152.729 11.3394C153.166 11.6448 153.692 11.8088 154.232 11.8079H161.812C162.816 11.8079 163.794 12.1138 164.607 12.6817C165.419 13.2495 166.023 14.0503 166.334 14.9691C166.644 15.8879 166.644 16.8776 166.334 17.7965C166.024 18.7153 165.419 19.516 164.607 20.084L158.475 24.3708C158.037 24.6752 157.712 25.1055 157.545 25.5996C157.378 26.0936 157.378 26.6259 157.546 27.1196L159.889 34.0551C160.199 34.974 160.199 35.9637 159.888 36.8826C159.578 37.8014 158.973 38.6021 158.161 39.17C157.349 39.7379 156.37 40.0437 155.366 40.0437C154.362 40.0437 153.384 39.7379 152.571 39.17L146.44 34.8837C146.003 34.5776 145.477 34.4126 144.938 34.4126C144.398 34.4126 143.872 34.5776 143.435 34.8837L137.303 39.17C136.494 39.7446 135.515 40.0564 134.509 40.0602ZM144.938 32.2955C145.942 32.2957 146.921 32.6025 147.732 33.1717L153.864 37.458C154.301 37.7634 154.826 37.9279 155.366 37.9279C155.906 37.928 156.432 37.7637 156.868 37.4584C157.305 37.1532 157.63 36.7228 157.797 36.2289C157.964 35.735 157.964 35.203 157.797 34.7091L155.455 27.7737C155.142 26.8549 155.142 25.8646 155.452 24.9453C155.763 24.026 156.368 23.2254 157.182 22.6587L163.314 18.3719C163.75 18.0667 164.075 17.6364 164.242 17.1425C164.409 16.6487 164.409 16.1168 164.242 15.623C164.075 15.1291 163.75 14.6988 163.314 14.3936C162.877 14.0884 162.351 13.924 161.812 13.9239H154.232C153.228 13.9257 152.249 13.6206 151.436 13.0525C150.623 12.4843 150.019 11.6826 149.71 10.7628L147.368 3.82736C147.201 3.33349 146.876 2.9031 146.44 2.59787C146.003 2.29264 145.477 2.12824 144.938 2.12824C144.398 2.12824 143.872 2.29264 143.435 2.59787C142.999 2.9031 142.674 3.33349 142.507 3.82736L140.165 10.7628C139.856 11.6826 139.252 12.4844 138.439 13.0525C137.627 13.6206 136.648 13.9258 135.643 13.9239H128.064C127.524 13.9239 126.998 14.0883 126.561 14.3934C126.125 14.6986 125.8 15.129 125.633 15.6228C125.466 16.1167 125.466 16.6486 125.633 17.1425C125.8 17.6363 126.125 18.0667 126.561 18.3719L132.693 22.6587C133.507 23.2255 134.113 24.0262 134.423 24.9454C134.734 25.8646 134.733 26.855 134.421 27.7737L132.078 34.7091C131.911 35.203 131.911 35.7349 132.078 36.2288C132.245 36.7226 132.57 37.153 133.007 37.4582C133.443 37.7634 133.969 37.9277 134.509 37.9277C135.048 37.9277 135.574 37.7632 136.011 37.458L142.143 33.1717C142.955 32.6025 143.933 32.2957 144.938 32.2955Z" fill="#3F3D56"/>
<path d="M249.877 86.6965L234.812 99.1566L211.203 118.678L208.012 121.317C207.719 121.557 207.48 121.849 207.306 122.179C207.133 122.508 207.029 122.867 207.001 123.235C206.96 123.77 207.077 124.304 207.34 124.777C207.44 124.955 207.56 125.122 207.698 125.275L209.409 127.193L212.015 130.11C212.063 130.161 212.108 130.209 212.16 130.258C212.681 130.76 213.379 131.053 214.115 131.081C214.851 131.108 215.57 130.867 216.129 130.406L242.901 108.272L257.997 95.788C258.583 95.3016 258.944 94.6119 259.001 93.8699C259.059 93.1278 258.808 92.3941 258.305 91.8295L257.394 90.8104L253.99 86.9983C253.741 86.7182 253.437 86.4881 253.095 86.3213C252.753 86.1545 252.38 86.0542 251.998 86.0262C251.616 85.9981 251.232 86.0429 250.868 86.1579C250.504 86.2729 250.167 86.456 249.877 86.6965Z" fill="#334C40"/>
<path d="M261.357 76.2132C274.621 76.2132 285.374 65.8674 285.374 53.1051C285.374 40.3429 274.621 29.9971 261.357 29.9971C248.093 29.9971 237.34 40.3429 237.34 53.1051C237.34 65.8674 248.093 76.2132 261.357 76.2132Z" fill="#334C40"/>
<path d="M263.122 142.841V195.953C263.123 196.698 263.43 197.411 263.977 197.937C264.524 198.463 265.265 198.759 266.039 198.76H272.662C273.435 198.759 274.177 198.463 274.724 197.937C275.27 197.411 275.578 196.698 275.579 195.953V142.841C275.578 142.097 275.27 141.384 274.724 140.857C274.177 140.331 273.435 140.035 272.662 140.035H266.039C265.265 140.035 264.524 140.331 263.977 140.857C263.43 141.384 263.123 142.097 263.122 142.841Z" fill="#2F2E41"/>
<path d="M249.125 142.841V195.953C249.125 196.322 249.201 196.687 249.347 197.027C249.494 197.368 249.709 197.677 249.979 197.938C250.25 198.199 250.572 198.405 250.926 198.546C251.28 198.687 251.659 198.76 252.042 198.76H258.665C259.439 198.759 260.18 198.463 260.727 197.937C261.274 197.411 261.581 196.698 261.582 195.953V142.841C261.581 142.097 261.274 141.384 260.727 140.857C260.18 140.331 259.439 140.035 258.665 140.035H252.042C251.659 140.035 251.28 140.107 250.926 140.248C250.572 140.389 250.25 140.596 249.979 140.857C249.709 141.117 249.494 141.427 249.347 141.767C249.201 142.108 249.125 142.473 249.125 142.841Z" fill="#2F2E41"/>
<path d="M251.814 150.117C249.322 150.115 246.862 149.573 244.617 148.531C242.373 147.489 240.401 145.974 238.848 144.099C237.294 142.223 236.2 140.035 235.646 137.698C235.092 135.36 235.092 132.932 235.646 130.594L243.139 98.9922C243.144 95.7236 244.085 92.5195 245.859 89.732C247.633 86.9445 250.171 84.6813 253.195 83.1912C256.219 81.701 259.61 81.0415 262.998 81.285C266.386 81.5286 269.638 82.6658 272.398 84.5717C274.784 86.2195 276.728 88.3894 278.071 90.9024C279.414 93.4153 280.116 96.1994 280.121 99.025C280.131 99.3106 281.175 128.699 281.614 142.28C281.643 143.209 281.482 144.135 281.139 145.004C280.796 145.873 280.278 146.668 279.614 147.344C278.951 148.02 278.155 148.563 277.273 148.942C276.39 149.32 275.439 149.528 274.473 149.552L252.349 150.109C252.17 150.114 251.992 150.117 251.814 150.117Z" fill="#2F2E41"/>
<path d="M241.075 63.3201L241.1 62.4566C239.431 62.4119 237.959 62.3111 236.853 61.5336C236.539 61.3006 236.281 61.0054 236.097 60.668C235.913 60.3306 235.806 59.959 235.784 59.5784C235.765 59.3458 235.801 59.1121 235.891 58.8953C235.981 58.6785 236.121 58.4846 236.301 58.3286C237.036 57.732 238.217 57.9251 239.078 58.305L239.821 58.6326L238.397 48.6196L237.508 48.7368L238.719 57.2542C237.549 56.9232 236.465 57.0657 235.722 57.6691C235.437 57.9086 235.213 58.2083 235.068 58.5448C234.924 58.8813 234.862 59.2454 234.887 59.6087C234.913 60.1201 235.056 60.6198 235.304 61.0728C235.552 61.5258 235.9 61.9211 236.323 62.231C237.744 63.2303 239.591 63.28 241.075 63.3201Z" fill="#2F2E41"/>
<path d="M248.368 49.4714H243.534V50.335H248.368V49.4714Z" fill="#2F2E41"/>
<path d="M267.632 91.0114L268.457 110.109L269.745 140.035L269.92 144.08C269.934 144.449 270.025 144.812 270.186 145.147C270.347 145.482 270.575 145.783 270.858 146.032C271.268 146.395 271.777 146.637 272.326 146.732C272.533 146.766 272.743 146.779 272.954 146.77L275.579 146.667L279.573 146.507C279.644 146.503 279.712 146.498 279.784 146.49C280.515 146.408 281.187 146.062 281.666 145.524C282.144 144.985 282.394 144.292 282.364 143.584L280.905 109.651L280.08 90.5149C280.046 89.7715 279.707 89.0713 279.138 88.5679C278.568 88.0645 277.815 87.7989 277.042 87.8293L275.646 87.8854L270.427 88.0926C270.044 88.1072 269.668 88.1943 269.32 88.3489C268.973 88.5036 268.66 88.7228 268.4 88.9939C268.14 89.265 267.939 89.5828 267.807 89.929C267.675 90.2752 267.616 90.643 267.632 91.0114Z" fill="#334C40"/>
<path d="M265.617 92.6262V107.306C265.617 108.038 265.915 108.74 266.445 109.263C266.976 109.787 267.698 110.09 268.457 110.109C268.483 110.112 268.508 110.114 268.534 110.113H279.303C279.477 110.113 279.649 110.097 279.819 110.065C280.207 110 280.577 109.859 280.905 109.651C281.308 109.395 281.639 109.047 281.869 108.638C282.098 108.229 282.219 107.771 282.22 107.306V92.6262C282.218 90.5085 281.342 88.4783 279.786 86.9808C278.23 85.4834 276.12 84.641 273.919 84.6385C273.349 84.6371 272.78 84.6936 272.222 84.8069C270.356 85.184 268.682 86.1667 267.479 87.5902C266.277 89.0138 265.619 90.7918 265.617 92.6262Z" fill="#2F2E41"/>
<path d="M234.15 98.753C234.262 99.1017 234.443 99.426 234.684 99.7072L241.505 107.725C241.627 107.873 241.767 108.007 241.923 108.122C242.444 108.531 243.095 108.754 243.768 108.753C244.44 108.752 245.091 108.528 245.611 108.118L257.418 98.8221C258.261 98.1575 258.96 97.3396 259.475 96.415C259.99 95.4904 260.311 94.4773 260.419 93.4335C260.527 92.3896 260.421 91.3355 260.106 90.3313C259.79 89.3271 259.273 88.3925 258.582 87.5808C257.891 86.7691 257.041 86.0963 256.08 85.6007C255.119 85.1051 254.066 84.7965 252.982 84.6925C251.897 84.5884 250.801 84.691 249.757 84.9944C248.714 85.2977 247.742 85.7959 246.899 86.4604L235.093 95.7565C234.646 96.1106 234.318 96.5842 234.15 97.1174C233.982 97.6507 233.983 98.2198 234.15 98.753Z" fill="#2F2E41"/>
<path d="M257.679 39.5177C253.678 41.1205 249.37 42.8936 244.936 42.4023C241.303 41.9998 237.812 39.9564 236.976 36.3453C236.176 32.8948 237.829 29.2952 240.463 26.9839C243.443 24.3693 247.557 23.1044 251.483 22.5708C253.855 22.2485 256.49 22.2276 258.677 23.2959C260.428 24.151 262.001 25.6971 262.272 27.6407L263.954 27.2023C262.765 25.2633 263.334 22.9131 264.649 21.1713C266.231 19.0771 268.886 18.2049 271.494 18.1321C276.797 17.9839 282.223 20.3517 286.493 23.2177C290.699 26.0505 294.161 29.7871 296.605 34.1313C299.345 39.011 300.855 44.8461 299.933 50.3832C298.995 56.0188 295.206 61.3666 289.341 63.063C288.231 63.384 288.704 65.061 289.821 64.738C295.42 63.1186 299.555 58.4539 301.144 53.1342C302.969 47.0212 301.713 40.3263 298.913 34.674C296.431 29.7331 292.725 25.4542 288.123 22.2132C283.522 18.9499 277.558 16.3249 271.746 16.3901C268.406 16.4276 265.172 17.5728 263.151 20.2162C261.425 22.473 260.871 25.5933 262.395 28.079C262.813 28.7614 264.202 28.5376 264.077 27.6406C263.444 23.0927 258.869 20.7546 254.464 20.6537C251.978 20.6445 249.505 20.9964 247.128 21.6975C244.928 22.2772 242.841 23.1952 240.946 24.416C237.389 26.7854 234.886 30.5691 234.987 34.8299C235.086 39.0807 238.063 42.3458 242.188 43.6029C247.632 45.262 253.152 43.1986 258.159 41.1927C258.386 41.1249 258.577 40.9768 258.694 40.7784C258.811 40.58 258.845 40.3461 258.79 40.1243C258.725 39.9029 258.572 39.715 258.364 39.6014C258.156 39.4878 257.91 39.4577 257.679 39.5177Z" fill="#2F2E41"/>
<path d="M184.395 124.664C183.389 124.66 182.41 124.348 181.601 123.774C180.78 123.213 180.168 122.413 179.857 121.491C179.546 120.57 179.551 119.577 179.873 118.659L182.215 111.723C182.383 111.229 182.384 110.697 182.217 110.203C182.05 109.709 181.724 109.279 181.287 108.974L175.155 104.687C174.342 104.12 173.738 103.319 173.428 102.4C173.117 101.481 173.117 100.491 173.428 99.5725C173.738 98.6537 174.343 97.8529 175.155 97.2851C175.967 96.7172 176.946 96.4114 177.95 96.4114H185.529C186.069 96.4124 186.595 96.2484 187.032 95.943C187.469 95.6376 187.794 95.2067 187.959 94.7123L190.302 87.7768C190.612 86.858 191.217 86.0573 192.029 85.4894C192.842 84.9216 193.82 84.6157 194.824 84.6157C195.828 84.6157 196.806 84.9216 197.619 85.4894C198.431 86.0573 199.036 86.858 199.346 87.7768L201.688 94.7123C201.854 95.2067 202.179 95.6376 202.616 95.943C203.052 96.2483 203.579 96.4124 204.119 96.4114H211.698C212.702 96.4115 213.68 96.7173 214.493 97.2852C215.305 97.8531 215.91 98.6538 216.22 99.5726C216.53 100.491 216.53 101.481 216.22 102.4C215.91 103.319 215.305 104.12 214.493 104.687L208.361 108.974C207.924 109.279 207.598 109.709 207.431 110.203C207.264 110.697 207.265 111.229 207.432 111.723L209.775 118.659C210.085 119.577 210.085 120.567 209.775 121.486C209.464 122.405 208.86 123.206 208.047 123.774C207.235 124.341 206.257 124.647 205.252 124.647C204.248 124.647 203.27 124.341 202.458 123.774L196.326 119.487C195.89 119.181 195.364 119.016 194.824 119.016C194.284 119.016 193.758 119.181 193.322 119.487L187.19 123.774C186.38 124.348 185.401 124.66 184.395 124.664ZM194.824 116.899C195.828 116.899 196.807 117.206 197.618 117.775L203.75 122.062C204.187 122.367 204.713 122.531 205.252 122.531C205.792 122.532 206.318 122.367 206.755 122.062C207.191 121.757 207.516 121.326 207.683 120.832C207.85 120.339 207.85 119.807 207.683 119.313L205.341 112.377C205.029 111.458 205.028 110.468 205.338 109.549C205.649 108.63 206.255 107.829 207.068 107.262L213.2 102.975C213.637 102.67 213.962 102.24 214.128 101.746C214.295 101.252 214.295 100.72 214.128 100.226C213.962 99.7326 213.637 99.3023 213.2 98.9971C212.764 98.6919 212.238 98.5275 211.698 98.5275H204.119C203.114 98.5293 202.135 98.2241 201.322 97.656C200.51 97.0879 199.905 96.2861 199.597 95.3663L197.254 88.4309C197.088 87.937 196.763 87.5066 196.326 87.2013C195.889 86.8961 195.364 86.7317 194.824 86.7317C194.284 86.7317 193.758 86.8961 193.322 87.2013C192.885 87.5066 192.56 87.937 192.393 88.4309L190.051 95.3663C189.742 96.2861 189.138 97.0879 188.326 97.656C187.513 98.2241 186.534 98.5293 185.529 98.5275H177.95C177.41 98.5274 176.884 98.6918 176.448 98.997C176.011 99.3021 175.686 99.7325 175.519 100.226C175.352 100.72 175.352 101.252 175.519 101.746C175.686 102.24 176.011 102.67 176.448 102.975L182.58 107.262C183.393 107.829 183.999 108.63 184.31 109.549C184.62 110.468 184.619 111.458 184.307 112.377L181.964 119.313C181.798 119.807 181.798 120.338 181.964 120.832C182.131 121.326 182.456 121.757 182.893 122.062C183.329 122.367 183.855 122.531 184.395 122.531C184.935 122.531 185.46 122.367 185.897 122.062L192.029 117.775C192.841 117.206 193.82 116.899 194.824 116.899Z" fill="#3F3D56"/>
</svg>
