<svg width="290" height="236" viewBox="0 0 290 236" fill="none" xmlns="http://www.w3.org/2000/svg">
<path d="M142.718 53.7207H141.519V19.8207C141.519 14.617 139.515 9.62645 135.949 5.9469C132.383 2.26735 127.546 0.200202 122.502 0.200195H52.8917C50.3944 0.200186 47.9216 0.707675 45.6144 1.69369C43.3073 2.6797 41.2109 4.12492 39.4451 5.94684C37.6792 7.76876 36.2785 9.93169 35.3228 12.3121C34.3671 14.6926 33.8753 17.244 33.8752 19.8206V205.799C33.8752 208.376 34.3671 210.927 35.3228 213.307C36.2784 215.688 37.6792 217.851 39.445 219.673C41.2108 221.495 43.3072 222.94 45.6143 223.926C47.9215 224.912 50.3943 225.419 52.8916 225.419H122.502C125 225.419 127.472 224.912 129.78 223.926C132.087 222.94 134.183 221.495 135.949 219.673C137.715 217.851 139.116 215.688 140.071 213.307C141.027 210.927 141.519 208.376 141.519 205.799V77.8513H142.718V53.7207Z" fill="#3F3D56"/>
<path d="M123.126 5.76733H114.04C114.458 6.82434 114.617 7.97116 114.504 9.10675C114.392 10.2424 114.01 11.3319 113.393 12.2794C112.775 13.2268 111.942 14.0032 110.965 14.54C109.989 15.0768 108.9 15.3576 107.793 15.3577H67.9141C66.8077 15.3576 65.7183 15.0768 64.7418 14.54C63.7654 14.0032 62.9319 13.2268 62.3147 12.2793C61.6976 11.3319 61.3157 10.2424 61.2028 9.10676C61.0899 7.97116 61.2494 6.82434 61.6673 5.76733H53.1805C49.4141 5.76733 45.802 7.31104 43.1387 10.0589C40.4755 12.8067 38.9793 16.5336 38.9792 20.4196V206.125C38.9792 208.049 39.3466 209.955 40.0603 211.732C40.7739 213.51 41.82 215.125 43.1387 216.486C44.4574 217.846 46.0229 218.926 47.7459 219.662C49.4689 220.398 51.3155 220.777 53.1805 220.777H123.126C126.893 220.777 130.505 219.234 133.168 216.486C135.831 213.738 137.328 210.011 137.328 206.125V20.4196C137.328 18.4955 136.96 16.5901 136.247 14.8124C135.533 13.0347 134.487 11.4195 133.168 10.0589C131.85 8.6983 130.284 7.61902 128.561 6.88267C126.838 6.14632 124.991 5.76733 123.126 5.76733ZM121.6 91.9173C121.597 92.9229 121.209 93.8866 120.519 94.5977C119.83 95.3088 118.896 95.7096 117.921 95.7125H100.142C99.1678 95.7096 98.2338 95.3088 97.5446 94.5977C96.8554 93.8866 96.4669 92.9229 96.4641 91.9173V90.9685C96.4669 89.9628 96.8554 88.9992 97.5446 88.2881C98.2338 87.5769 99.1678 87.1761 100.142 87.1732H117.921C118.896 87.1761 119.83 87.577 120.519 88.2881C121.209 88.9992 121.597 89.9628 121.6 90.9685V91.9173ZM123.592 75.1549C123.589 76.1606 123.201 77.1242 122.512 77.8353C121.823 78.5464 120.889 78.9472 119.914 78.9502H56.1548C55.1801 78.9472 54.2462 78.5464 53.557 77.8353C52.8677 77.1242 52.4793 76.1606 52.4764 75.1549V74.2061C52.4793 73.2004 52.8677 72.2368 53.557 71.5257C54.2462 70.8146 55.1801 70.4138 56.1548 70.4109H119.914C120.889 70.4138 121.823 70.8146 122.512 71.5257C123.201 72.2368 123.589 73.2004 123.592 74.2061V75.1549ZM123.592 58.3926C123.589 59.3982 123.201 60.3618 122.512 61.0729C121.823 61.7841 120.889 62.1849 119.914 62.1878H56.1548C55.1801 62.1849 54.2462 61.7841 53.557 61.073C52.8677 60.3618 52.4793 59.3982 52.4764 58.3926V57.4437C52.4793 56.4381 52.8677 55.4745 53.557 54.7633C54.2462 54.0522 55.1801 53.6514 56.1548 53.6485H119.914C120.889 53.6514 121.823 54.0522 122.512 54.7633C123.201 55.4745 123.589 56.4381 123.592 57.4437V58.3926ZM123.592 41.6302C123.589 42.6359 123.201 43.5995 122.512 44.3106C121.823 45.0217 120.889 45.4225 119.914 45.4254H56.1548C55.1801 45.4225 54.2462 45.0217 53.557 44.3106C52.8677 43.5995 52.4793 42.6359 52.4764 41.6302V40.6814C52.4793 39.6757 52.8677 38.7121 53.557 38.001C54.2462 37.2899 55.1801 36.8891 56.1548 36.8861H119.914C120.889 36.8891 121.823 37.2899 122.512 38.001C123.201 38.7121 123.589 39.6757 123.592 40.6814V41.6302Z" fill="white"/>
<path d="M57.5342 77.0533C58.7192 77.0533 59.6799 76.0621 59.6799 74.8394C59.6799 73.6167 58.7192 72.6255 57.5342 72.6255C56.3491 72.6255 55.3884 73.6167 55.3884 74.8394C55.3884 76.0621 56.3491 77.0533 57.5342 77.0533Z" fill="white"/>
<path d="M64.5845 77.0533C65.7695 77.0533 66.7302 76.0621 66.7302 74.8394C66.7302 73.6167 65.7695 72.6255 64.5845 72.6255C63.3994 72.6255 62.4387 73.6167 62.4387 74.8394C62.4387 76.0621 63.3994 77.0533 64.5845 77.0533Z" fill="white"/>
<path d="M71.6348 77.0533C72.8198 77.0533 73.7805 76.0621 73.7805 74.8394C73.7805 73.6167 72.8198 72.6255 71.6348 72.6255C70.4497 72.6255 69.489 73.6167 69.489 74.8394C69.489 76.0621 70.4497 77.0533 71.6348 77.0533Z" fill="white"/>
<path d="M78.685 77.0533C79.8701 77.0533 80.8308 76.0621 80.8308 74.8394C80.8308 73.6167 79.8701 72.6255 78.685 72.6255C77.5 72.6255 76.5393 73.6167 76.5393 74.8394C76.5393 76.0621 77.5 77.0533 78.685 77.0533Z" fill="white"/>
<path d="M101.675 93.8152C102.86 93.8152 103.821 92.824 103.821 91.6013C103.821 90.3786 102.86 89.3875 101.675 89.3875C100.49 89.3875 99.5293 90.3786 99.5293 91.6013C99.5293 92.824 100.49 93.8152 101.675 93.8152Z" fill="white"/>
<path d="M108.725 93.8152C109.91 93.8152 110.871 92.824 110.871 91.6013C110.871 90.3786 109.91 89.3875 108.725 89.3875C107.54 89.3875 106.58 90.3786 106.58 91.6013C106.58 92.824 107.54 93.8152 108.725 93.8152Z" fill="white"/>
<path d="M115.776 93.8152C116.961 93.8152 117.921 92.824 117.921 91.6013C117.921 90.3786 116.961 89.3875 115.776 89.3875C114.591 89.3875 113.63 90.3786 113.63 91.6013C113.63 92.824 114.591 93.8152 115.776 93.8152Z" fill="white"/>
<path d="M124.086 120.289H51.37C49.6617 120.289 48.0233 120.989 46.8153 122.235C45.6073 123.481 44.9287 125.172 44.9287 126.934V163.488C44.9287 165.251 45.6073 166.941 46.8153 168.188C48.0233 169.434 49.6617 170.134 51.37 170.134H124.086C125.794 170.134 127.432 169.434 128.64 168.188C129.848 166.941 130.527 165.251 130.527 163.488V126.934C130.527 125.172 129.848 123.481 128.64 122.235C127.432 120.989 125.794 120.289 124.086 120.289ZM49.5709 124.822C49.7145 124.795 53.1195 124.197 55.9389 125.948C58.7583 127.698 59.8415 131.082 59.8861 131.225L60.0001 131.59L59.6342 131.657C59.1123 131.741 58.5845 131.781 58.0563 131.777C56.3804 131.81 54.7265 131.38 53.2661 130.531C50.4468 128.781 49.3637 125.397 49.319 125.254L49.205 124.889L49.5709 124.822ZM65.3556 158.76H52.3861C51.4402 158.76 50.533 158.372 49.8642 157.682C49.1953 156.992 48.8195 156.056 48.8195 155.08C48.8195 154.104 49.1953 153.168 49.8642 152.478C50.533 151.788 51.4402 151.4 52.3861 151.4H65.3556C66.3015 151.4 67.2087 151.788 67.8775 152.478C68.5464 153.168 68.9221 154.104 68.9221 155.08C68.9221 156.056 68.5464 156.992 67.8775 157.682C67.2087 158.372 66.3015 158.76 65.3556 158.76ZM124.366 158.091C124.363 159.155 123.952 160.174 123.223 160.926C122.494 161.678 121.507 162.102 120.476 162.105H110.749C109.718 162.102 108.73 161.678 108.001 160.926C107.272 160.174 106.861 159.155 106.858 158.091V152.069C106.861 151.006 107.272 149.986 108.001 149.234C108.73 148.482 109.718 148.058 110.749 148.055H120.476C121.507 148.058 122.494 148.482 123.223 149.234C123.952 149.986 124.363 151.006 124.366 152.069L124.366 158.091Z" fill="#334C40"/>
<path d="M113.885 156.848H109.974C109.695 156.848 109.427 156.963 109.229 157.167C109.032 157.37 108.921 157.647 108.921 157.935C108.921 158.223 109.032 158.499 109.229 158.703C109.427 158.907 109.695 159.021 109.974 159.021H113.885C114.164 159.021 114.432 158.907 114.629 158.703C114.827 158.499 114.938 158.223 114.938 157.935C114.938 157.647 114.827 157.37 114.629 157.167C114.432 156.963 114.164 156.848 113.885 156.848Z" fill="#3F3D56"/>
<path d="M121.105 156.848H117.194C116.915 156.848 116.647 156.963 116.45 157.167C116.252 157.37 116.141 157.647 116.141 157.935C116.141 158.223 116.252 158.499 116.45 158.703C116.647 158.907 116.915 159.021 117.194 159.021H121.105C121.384 159.021 121.652 158.907 121.85 158.703C122.047 158.499 122.158 158.223 122.158 157.935C122.158 157.647 122.047 157.37 121.85 157.167C121.652 156.963 121.384 156.848 121.105 156.848Z" fill="#3F3D56"/>
<path d="M113.884 153.782H109.973C109.694 153.782 109.426 153.897 109.229 154.101C109.031 154.304 108.92 154.581 108.92 154.869C108.92 155.157 109.031 155.433 109.229 155.637C109.426 155.841 109.694 155.955 109.973 155.955H113.884C114.163 155.955 114.431 155.841 114.629 155.637C114.826 155.433 114.937 155.157 114.937 154.869C114.937 154.581 114.826 154.304 114.629 154.101C114.431 153.897 114.163 153.782 113.884 153.782Z" fill="#3F3D56"/>
<path d="M121.105 153.782H117.194C116.914 153.782 116.647 153.897 116.449 154.101C116.252 154.304 116.141 154.581 116.141 154.869C116.141 155.157 116.252 155.433 116.449 155.637C116.647 155.841 116.914 155.955 117.194 155.955H121.105C121.384 155.955 121.652 155.841 121.849 155.637C122.047 155.433 122.158 155.157 122.158 154.869C122.158 154.581 122.047 154.304 121.849 154.101C121.652 153.897 121.384 153.782 121.105 153.782Z" fill="#3F3D56"/>
<path d="M113.884 150.777H109.973C109.694 150.777 109.426 150.891 109.229 151.095C109.031 151.299 108.92 151.575 108.92 151.863C108.92 152.151 109.031 152.428 109.229 152.631C109.426 152.835 109.694 152.95 109.973 152.95H113.884C114.163 152.95 114.431 152.835 114.629 152.631C114.826 152.428 114.937 152.151 114.937 151.863C114.937 151.575 114.826 151.299 114.629 151.095C114.431 150.891 114.163 150.777 113.884 150.777Z" fill="#3F3D56"/>
<path d="M121.105 150.777H117.194C116.914 150.777 116.647 150.891 116.449 151.095C116.252 151.299 116.141 151.575 116.141 151.863C116.141 152.151 116.252 152.428 116.449 152.631C116.647 152.835 116.914 152.95 117.194 152.95H121.105C121.384 152.95 121.652 152.835 121.849 152.631C122.047 152.428 122.158 152.151 122.158 151.863C122.158 151.575 122.047 151.299 121.849 151.095C121.652 150.891 121.384 150.777 121.105 150.777Z" fill="#3F3D56"/>
<path d="M174.449 134.058H164.965V143.844H174.449V134.058Z" fill="#E6E6E6"/>
<path d="M153.787 139.998H169.369V156.075H153.787V139.998ZM168.691 140.697H154.464V155.376H168.691V140.697Z" fill="#3F3D56"/>
<path d="M9.48463 53.3245H0V63.1104H9.48463V53.3245Z" fill="#E6E6E6"/>
<path d="M20.6629 57.1682H5.08105V41.0913H20.6629V57.1682ZM5.75853 56.4692H19.9855V41.7903H5.75853V56.4692Z" fill="#3F3D56"/>
<path d="M221.221 231.364H217.068L215.093 214.837H221.222L221.221 231.364Z" fill="#FFB8B8"/>
<path d="M214.102 230.14H222.111V235.343H209.059C209.059 233.963 209.59 232.64 210.536 231.664C211.482 230.689 212.764 230.14 214.102 230.14Z" fill="#2F2E41"/>
<path d="M241.884 231.364H237.731L235.756 214.837H241.885L241.884 231.364Z" fill="#FFB8B8"/>
<path d="M234.765 230.14H242.774V235.343H229.722C229.722 233.963 230.253 232.64 231.199 231.664C232.145 230.689 233.427 230.14 234.765 230.14Z" fill="#2F2E41"/>
<path d="M200.389 172.258C200.09 171.804 199.891 171.288 199.807 170.746C199.722 170.204 199.754 169.65 199.9 169.122C200.045 168.594 200.301 168.105 200.65 167.691C200.998 167.276 201.431 166.945 201.916 166.721L216.034 126.576L222.98 130.487L206.861 168.852C207.171 169.719 207.163 170.673 206.836 171.533C206.51 172.394 205.889 173.101 205.092 173.521C204.294 173.941 203.374 174.045 202.507 173.812C201.641 173.579 200.887 173.026 200.389 172.258Z" fill="#FFB8B8"/>
<path d="M239.763 179.802C239.301 179.529 238.904 179.155 238.597 178.706C238.291 178.257 238.084 177.745 237.991 177.204C237.897 176.664 237.92 176.109 238.057 175.579C238.194 175.048 238.441 174.555 238.783 174.134L234.41 131.667L242.315 132.04L244.133 173.812C244.78 174.451 245.177 175.312 245.25 176.233C245.322 177.154 245.065 178.071 244.526 178.809C243.988 179.548 243.205 180.057 242.328 180.24C241.45 180.423 240.537 180.267 239.763 179.802Z" fill="#FFB8B8"/>
<path d="M227.152 119.141C231.746 119.141 235.471 115.298 235.471 110.557C235.471 105.816 231.746 101.973 227.152 101.973C222.557 101.973 218.832 105.816 218.832 110.557C218.832 115.298 222.557 119.141 227.152 119.141Z" fill="#FFB8B8"/>
<path d="M239.71 170.145H214.627L214.658 169.944C214.703 169.643 219.128 139.733 215.864 129.949C215.537 128.987 215.565 127.934 215.945 126.993C216.325 126.052 217.028 125.29 217.92 124.852C222.585 122.585 231.54 119.794 239.098 126.567C240.21 127.581 241.079 128.847 241.635 130.266C242.191 131.685 242.419 133.218 242.302 134.744L239.71 170.145Z" fill="#CCCCCC"/>
<path d="M219.445 144.151L208.152 141.787L213.446 128.846C213.762 127.592 214.548 126.519 215.63 125.863C216.713 125.206 218.003 125.019 219.219 125.343C220.434 125.667 221.476 126.475 222.115 127.59C222.754 128.705 222.938 130.036 222.627 131.291L219.445 144.151Z" fill="#CCCCCC"/>
<path d="M233.908 148.54L233.229 132.484C232.714 129.466 234.389 126.612 236.964 126.146C239.54 125.681 242.056 127.775 242.573 130.815L245.125 145.818L233.908 148.54Z" fill="#CCCCCC"/>
<path d="M238.875 168.222C242.911 184.081 243.351 204.245 242.263 226.239L236.843 225.54L227.019 183.6L221.6 226.239L215.502 225.889C213.681 202.812 211.907 183.001 214.825 169.97L238.875 168.222Z" fill="#2F2E41"/>
<path d="M232.633 117.189C231.081 118.895 228.199 117.979 227.997 115.649C227.981 115.468 227.982 115.286 228 115.105C228.105 114.073 228.682 113.136 228.544 112.046C228.513 111.774 228.415 111.516 228.259 111.295C227.023 109.586 224.119 112.059 222.952 110.512C222.236 109.563 223.078 108.07 222.528 107.01C221.804 105.611 219.656 106.301 218.31 105.534C216.812 104.682 216.901 102.31 217.887 100.868C219.09 99.1085 221.199 98.1698 223.281 98.0345C225.364 97.8992 227.432 98.48 229.376 99.2618C231.585 100.15 233.775 101.377 235.135 103.381C236.788 105.819 236.947 109.095 236.12 111.945C235.617 113.678 233.901 115.796 232.633 117.189Z" fill="#2F2E41"/>
<path d="M289.661 235.76H160.602C160.513 235.76 160.426 235.723 160.363 235.658C160.299 235.592 160.264 235.503 160.264 235.411C160.264 235.318 160.299 235.229 160.363 235.163C160.426 235.098 160.513 235.061 160.602 235.061H289.661C289.751 235.061 289.837 235.098 289.901 235.163C289.964 235.229 290 235.318 290 235.411C290 235.503 289.964 235.592 289.901 235.658C289.837 235.723 289.751 235.76 289.661 235.76Z" fill="#3F3D56"/>
</svg>
