<svg width="302" height="215" viewBox="0 0 302 215" fill="none" xmlns="http://www.w3.org/2000/svg">
<path d="M270.927 210.076C264.154 214.767 255.376 215.003 246.892 214.427C245.707 214.346 244.531 214.252 243.365 214.15C243.358 214.148 243.349 214.149 243.342 214.147C243.286 214.142 243.23 214.137 243.176 214.134C242.935 214.112 242.695 214.091 242.456 214.069L242.513 214.172L242.689 214.493C242.626 214.385 242.562 214.28 242.499 214.173C242.48 214.141 242.459 214.109 242.441 214.077C240.243 210.399 238.063 206.587 237.507 202.387C236.932 198.029 238.547 193.093 242.537 190.951C243.06 190.671 243.615 190.448 244.189 190.286C244.428 190.216 244.67 190.159 244.914 190.109C246.411 189.79 247.969 189.859 249.428 190.311C250.887 190.762 252.195 191.579 253.217 192.677C254.239 193.776 254.938 195.116 255.242 196.56C255.547 198.004 255.446 199.501 254.95 200.895C258.333 197.56 257.702 192.15 256.535 187.628C255.366 183.107 253.95 178.076 256.328 174.015C257.65 171.754 259.975 170.352 262.583 169.787C262.663 169.77 262.743 169.753 262.823 169.739C265.931 169.134 269.163 169.678 271.871 171.263C276.859 174.286 279.421 180.016 280.253 185.629C281.592 194.661 278.628 204.741 270.927 210.076Z" fill="#F2F2F2"/>
<path d="M268.74 195.597C268.543 197.589 268.045 199.543 267.262 201.397C266.54 203.038 265.567 204.566 264.376 205.93C261.898 208.718 258.76 210.894 255.226 212.273C252.553 213.326 249.753 214.049 246.891 214.427C245.706 214.346 244.53 214.252 243.364 214.15C243.357 214.148 243.348 214.149 243.341 214.147C243.285 214.142 243.229 214.137 243.175 214.134C242.935 214.112 242.694 214.091 242.456 214.069L242.512 214.172L242.689 214.493C242.625 214.385 242.562 214.28 242.498 214.173C242.48 214.141 242.459 214.109 242.44 214.077C244.586 212.021 246.187 209.502 247.111 206.729C248.035 203.956 248.255 201.01 247.751 198.139C247.224 195.288 246.003 192.597 244.189 190.286C244.427 190.216 244.669 190.159 244.914 190.109C245.603 191.016 246.208 191.979 246.721 192.988C248.562 196.585 249.15 200.657 248.396 204.601C247.696 208.17 245.951 211.472 243.367 214.121C243.593 214.106 243.822 214.088 244.045 214.068C248.281 213.723 252.507 212.848 256.349 211.055C259.632 209.559 262.483 207.31 264.649 204.506C266.976 201.421 268.001 197.71 268.177 193.939C268.313 189.876 267.87 185.814 266.861 181.866C265.882 177.841 264.395 173.946 262.432 170.268C262.388 170.184 262.379 170.088 262.407 169.998C262.435 169.909 262.498 169.833 262.583 169.787C262.653 169.741 262.739 169.724 262.823 169.739C262.864 169.749 262.901 169.769 262.933 169.795C262.966 169.821 262.991 169.854 263.008 169.892C263.25 170.346 263.488 170.801 263.716 171.26C265.62 175.09 267.022 179.132 267.889 183.294C268.731 187.308 269.18 191.508 268.74 195.597Z" fill="white"/>
<path d="M12.5999 63.0829C12.3982 63.0827 12.1984 63.0464 12.0105 62.9759C11.7068 62.8637 11.4457 62.6653 11.262 62.407C11.0783 62.1488 10.9806 61.8429 10.982 61.53V45.3245C10.9814 44.776 10.7545 44.2501 10.3511 43.8622C9.94767 43.4743 9.40072 43.2562 8.83021 43.2555H5.37872C3.95269 43.254 2.58552 42.7086 1.57716 41.7391C0.568797 40.7696 0.00159823 39.4551 0 38.084V5.50208C0.00159918 4.13098 0.568797 2.81648 1.57716 1.84697C2.58552 0.877452 3.95269 0.332103 5.37872 0.330566H127.123C128.549 0.332105 129.916 0.877453 130.924 1.84697C131.932 2.81648 132.5 4.13098 132.501 5.50208V38.084C132.5 39.4551 131.932 40.7696 130.924 41.7391C129.916 42.7086 128.549 43.254 127.123 43.2555H33.1536C32.8554 43.2558 32.5604 43.3156 32.2874 43.4311C32.0143 43.5466 31.7692 43.7153 31.5674 43.9265L13.7849 62.5783C13.6347 62.737 13.4518 62.8639 13.2477 62.9508C13.0437 63.0377 12.823 63.0827 12.5999 63.0829ZM5.37872 1.01968C4.14271 1.02102 2.95772 1.4937 2.08373 2.33402C1.20974 3.17435 0.718115 4.31368 0.716719 5.50208V38.084C0.718116 39.2724 1.20974 40.4117 2.08373 41.2521C2.95772 42.0924 4.14271 42.5651 5.37872 42.5664H8.8302C9.59074 42.5672 10.3199 42.8581 10.8577 43.3752C11.3954 43.8922 11.6979 44.5933 11.6987 45.3245V61.53C11.6988 61.7037 11.7533 61.8734 11.8554 62.0168C11.9574 62.1602 12.1021 62.2706 12.2704 62.3336C12.4388 62.3965 12.6231 62.4091 12.7991 62.3697C12.975 62.3303 13.1345 62.2407 13.2566 62.1126L31.0391 43.4608C31.3081 43.1792 31.6349 42.9544 31.9988 42.8005C32.3628 42.6465 32.756 42.5668 33.1536 42.5664H127.123C128.359 42.5651 129.544 42.0924 130.418 41.2521C131.292 40.4117 131.783 39.2724 131.785 38.084V5.50208C131.783 4.31368 131.292 3.17435 130.418 2.33402C129.544 1.4937 128.359 1.02102 127.123 1.01968H5.37872Z" fill="#CCCCCC"/>
<path d="M13.1934 32.0051C15.7928 32.0051 17.9 29.9791 17.9 27.4799C17.9 24.9806 15.7928 22.9546 13.1934 22.9546C10.594 22.9546 8.48682 24.9806 8.48682 27.4799C8.48682 29.9791 10.594 32.0051 13.1934 32.0051Z" fill="#CCCCCC"/>
<path d="M121.632 35.5198H10.8701C10.5402 35.5202 10.2135 35.4581 9.90859 35.3369C9.6037 35.2158 9.32662 35.0381 9.09321 34.814C8.8598 34.5898 8.67463 34.3236 8.5483 34.0306C8.42196 33.7376 8.35693 33.4235 8.35693 33.1064C8.35693 32.7892 8.42196 32.4751 8.5483 32.1821C8.67463 31.8891 8.8598 31.6229 9.09321 31.3987C9.32662 31.1746 9.6037 30.9969 9.90859 30.8758C10.2135 30.7546 10.5402 30.6925 10.8701 30.6929H121.632C121.962 30.6925 122.289 30.7546 122.593 30.8758C122.898 30.9969 123.175 31.1746 123.409 31.3987C123.642 31.6229 123.827 31.8891 123.954 32.1821C124.08 32.4751 124.145 32.7892 124.145 33.1064C124.145 33.4235 124.08 33.7376 123.954 34.0306C123.827 34.3236 123.642 34.5898 123.409 34.814C123.175 35.0381 122.898 35.2158 122.593 35.3369C122.289 35.4581 121.962 35.5202 121.632 35.5198Z" fill="#CCCCCC"/>
<path d="M85.548 25.2625H10.8701C10.5402 25.2629 10.2135 25.2007 9.90859 25.0796C9.6037 24.9585 9.32662 24.7808 9.09321 24.5566C8.8598 24.3325 8.67463 24.0663 8.5483 23.7733C8.42196 23.4803 8.35693 23.1662 8.35693 22.849C8.35693 22.5318 8.42196 22.2178 8.5483 21.9248C8.67463 21.6318 8.8598 21.3656 9.09321 21.1414C9.32662 20.9173 9.6037 20.7396 9.90859 20.6184C10.2135 20.4973 10.5402 20.4352 10.8701 20.4355H85.548C85.8779 20.4352 86.2047 20.4973 86.5096 20.6184C86.8144 20.7396 87.0915 20.9173 87.3249 21.1414C87.5583 21.3656 87.7435 21.6318 87.8699 21.9248C87.9962 22.2178 88.0612 22.5318 88.0612 22.849C88.0612 23.1662 87.9962 23.4803 87.8699 23.7733C87.7435 24.0663 87.5583 24.3325 87.3249 24.5566C87.0915 24.7808 86.8144 24.9585 86.5096 25.0796C86.2047 25.2007 85.8779 25.2629 85.548 25.2625Z" fill="#CCCCCC"/>
<path d="M12.5999 195.025C12.3982 195.025 12.1984 194.989 12.0105 194.918C11.7068 194.806 11.4457 194.607 11.262 194.349C11.0783 194.091 10.9807 193.785 10.982 193.472V177.267C10.9814 176.718 10.7545 176.192 10.3511 175.804C9.94767 175.416 9.40072 175.198 8.83021 175.198H5.37872C3.95269 175.196 2.58552 174.651 1.57716 173.681C0.568803 172.712 0.00160203 171.397 0 170.026V137.444C0.00159918 136.073 0.568798 134.759 1.57716 133.789C2.58552 132.82 3.95269 132.274 5.37872 132.273H127.123C128.549 132.274 129.916 132.82 130.924 133.789C131.932 134.759 132.5 136.073 132.501 137.444V170.026C132.5 171.397 131.932 172.712 130.924 173.681C129.916 174.651 128.549 175.196 127.123 175.198H33.1536C32.8554 175.198 32.5604 175.258 32.2874 175.373C32.0143 175.489 31.7692 175.657 31.5674 175.869L13.7849 194.52C13.6347 194.679 13.4518 194.806 13.2477 194.893C13.0437 194.98 12.823 195.025 12.5999 195.025ZM5.37872 132.962C4.14271 132.963 2.95772 133.436 2.08373 134.276C1.20974 135.116 0.718113 136.256 0.716719 137.444V170.026C0.718115 171.215 1.20974 172.354 2.08373 173.194C2.95772 174.035 4.14271 174.507 5.37872 174.509H8.8302C9.59074 174.509 10.3199 174.8 10.8577 175.317C11.3954 175.834 11.6979 176.535 11.6987 177.267V193.472C11.6988 193.646 11.7533 193.816 11.8554 193.959C11.9574 194.102 12.1021 194.213 12.2704 194.276C12.4388 194.339 12.6231 194.351 12.7991 194.312C12.975 194.272 13.1345 194.183 13.2566 194.055L31.0391 175.403C31.3081 175.121 31.6349 174.897 31.9988 174.743C32.3628 174.589 32.756 174.509 33.1536 174.509H127.123C128.359 174.507 129.544 174.035 130.418 173.194C131.292 172.354 131.783 171.215 131.785 170.026V137.444C131.783 136.256 131.292 135.116 130.418 134.276C129.544 133.436 128.359 132.963 127.123 132.962L5.37872 132.962Z" fill="#CCCCCC"/>
<path d="M192.383 135.291C192.16 135.291 191.939 135.246 191.735 135.159C191.531 135.072 191.348 134.945 191.198 134.787L173.416 116.135C173.214 115.924 172.969 115.755 172.696 115.639C172.423 115.524 172.128 115.464 171.829 115.464H77.8604C76.4344 115.462 75.0672 114.917 74.0588 113.947C73.0505 112.978 72.4833 111.663 72.4817 110.292V77.7103C72.4833 76.3392 73.0505 75.0247 74.0589 74.0552C75.0672 73.0857 76.4344 72.5404 77.8604 72.5388H199.604C201.03 72.5404 202.397 73.0857 203.406 74.0552C204.414 75.0247 204.981 76.3392 204.983 77.7103V110.292C204.981 111.663 204.414 112.978 203.406 113.947C202.397 114.917 201.03 115.462 199.604 115.464H196.153C195.582 115.464 195.035 115.683 194.632 116.07C194.228 116.458 194.002 116.984 194.001 117.533V133.738C194.002 134.051 193.905 134.357 193.721 134.615C193.537 134.873 193.276 135.072 192.972 135.184C192.785 135.255 192.585 135.291 192.383 135.291ZM77.8604 73.2279C76.6244 73.2293 75.4394 73.7019 74.5654 74.5423C73.6914 75.3826 73.1998 76.5219 73.1984 77.7103V110.292C73.1998 111.481 73.6914 112.62 74.5654 113.46C75.4394 114.301 76.6244 114.773 77.8604 114.775H171.829C172.227 114.775 172.62 114.855 172.984 115.009C173.348 115.163 173.675 115.387 173.944 115.669L191.726 134.321C191.848 134.449 192.008 134.539 192.184 134.578C192.36 134.617 192.544 134.605 192.712 134.542C192.881 134.479 193.026 134.368 193.128 134.225C193.23 134.082 193.284 133.912 193.284 133.738V117.533C193.285 116.802 193.587 116.1 194.125 115.583C194.663 115.066 195.392 114.775 196.153 114.775H199.604C200.84 114.773 202.025 114.301 202.899 113.46C203.773 112.62 204.265 111.481 204.266 110.292V77.7103C204.265 76.5219 203.773 75.3826 202.899 74.5423C202.025 73.702 200.84 73.2293 199.604 73.2279L77.8604 73.2279Z" fill="#3F3D56"/>
<path d="M13.1934 146.947C15.7928 146.947 17.9 144.921 17.9 142.422C17.9 139.923 15.7928 137.896 13.1934 137.896C10.594 137.896 8.48682 139.923 8.48682 142.422C8.48682 144.921 10.594 146.947 13.1934 146.947Z" fill="#CCCCCC"/>
<path d="M121.632 167.462H10.8701C10.5402 167.462 10.2135 167.4 9.90859 167.279C9.6037 167.158 9.32662 166.98 9.09321 166.756C8.8598 166.532 8.67463 166.266 8.5483 165.973C8.42196 165.68 8.35693 165.365 8.35693 165.048C8.35693 164.731 8.42196 164.417 8.5483 164.124C8.67463 163.831 8.8598 163.565 9.09321 163.341C9.32662 163.116 9.6037 162.939 9.90859 162.818C10.2135 162.697 10.5402 162.634 10.8701 162.635H121.632C122.298 162.635 122.936 162.889 123.407 163.342C123.878 163.794 124.142 164.408 124.142 165.048C124.142 165.688 123.878 166.302 123.407 166.755C122.936 167.207 122.298 167.462 121.632 167.462Z" fill="#CCCCCC"/>
<path d="M85.548 157.204H10.8701C10.5402 157.205 10.2135 157.143 9.90859 157.022C9.6037 156.9 9.32662 156.723 9.09321 156.499C8.8598 156.274 8.67463 156.008 8.5483 155.715C8.42196 155.422 8.35693 155.108 8.35693 154.791C8.35693 154.474 8.42196 154.16 8.5483 153.867C8.67463 153.574 8.8598 153.307 9.09321 153.083C9.32662 152.859 9.6037 152.681 9.90859 152.56C10.2135 152.439 10.5402 152.377 10.8701 152.377H85.548C85.8779 152.377 86.2047 152.439 86.5096 152.56C86.8144 152.681 87.0915 152.859 87.3249 153.083C87.5583 153.307 87.7435 153.574 87.8699 153.867C87.9962 154.16 88.0612 154.474 88.0612 154.791C88.0612 155.108 87.9962 155.422 87.8699 155.715C87.7435 156.008 87.5583 156.274 87.3249 156.499C87.0915 156.723 86.8144 156.9 86.5096 157.022C86.2047 157.143 85.8779 157.205 85.548 157.204Z" fill="#CCCCCC"/>
<path d="M85.6753 86.9119C88.2747 86.9119 90.3819 84.8858 90.3819 82.3866C90.3819 79.8874 88.2747 77.8613 85.6753 77.8613C83.076 77.8613 80.9688 79.8874 80.9688 82.3866C80.9688 84.8858 83.076 86.9119 85.6753 86.9119Z" fill="#3F3D56"/>
<path d="M194.113 107.427H83.3515C82.6857 107.427 82.0473 107.172 81.5765 106.72C81.1058 106.267 80.8413 105.653 80.8413 105.013C80.8413 104.373 81.1058 103.759 81.5765 103.306C82.0473 102.854 82.6857 102.6 83.3515 102.6H194.113C194.779 102.6 195.417 102.854 195.888 103.306C196.359 103.759 196.623 104.373 196.623 105.013C196.623 105.653 196.359 106.267 195.888 106.72C195.417 107.172 194.779 107.427 194.113 107.427Z" fill="#334C40"/>
<path d="M158.029 97.1693H83.3511C83.0212 97.1696 82.6944 97.1075 82.3895 96.9864C82.0846 96.8652 81.8076 96.6875 81.5742 96.4634C81.3408 96.2392 81.1556 95.973 81.0293 95.68C80.9029 95.387 80.8379 95.073 80.8379 94.7558C80.8379 94.4386 80.9029 94.1245 81.0293 93.8315C81.1556 93.5385 81.3408 93.2723 81.5742 93.0482C81.8076 92.824 82.0846 92.6463 82.3895 92.5252C82.6944 92.4041 83.0212 92.3419 83.3511 92.3423H120.69H158.029C158.359 92.3419 158.686 92.4041 158.991 92.5252C159.295 92.6463 159.572 92.824 159.806 93.0482C160.039 93.2723 160.224 93.5385 160.351 93.8315C160.477 94.1245 160.542 94.4386 160.542 94.7558C160.542 95.073 160.477 95.387 160.351 95.68C160.224 95.973 160.039 96.2392 159.806 96.4634C159.572 96.6875 159.295 96.8652 158.991 96.9864C158.686 97.1075 158.359 97.1696 158.029 97.1693Z" fill="#334C40"/>
<path d="M194.065 141.494C194.173 140.998 194.392 140.531 194.708 140.125C195.023 139.719 195.428 139.385 195.892 139.146C196.356 138.907 196.87 138.769 197.396 138.741C197.922 138.714 198.448 138.797 198.937 138.986L207.343 129.698L209.129 135.862L200.872 143.737C200.488 144.505 199.823 145.112 199.005 145.441C198.187 145.77 197.271 145.799 196.432 145.522C195.593 145.246 194.889 144.683 194.453 143.94C194.016 143.198 193.878 142.327 194.065 141.494Z" fill="#FFB8B8"/>
<path d="M240.205 97.9086C245.066 97.9086 249.007 94.1198 249.007 89.446C249.007 84.7722 245.066 80.9834 240.205 80.9834C235.344 80.9834 231.403 84.7722 231.403 89.446C231.403 94.1198 235.344 97.9086 240.205 97.9086Z" fill="#FFB8B8"/>
<path d="M229.865 205.93L225.471 205.93L223.381 189.637L229.866 189.637L229.865 205.93Z" fill="#FFB8B8"/>
<path d="M230.986 210.025L216.82 210.024V209.852C216.82 209.156 216.962 208.467 217.239 207.823C217.516 207.18 217.923 206.596 218.435 206.103C218.947 205.611 219.554 205.221 220.223 204.954C220.892 204.688 221.609 204.551 222.333 204.551L230.986 204.551L230.986 210.025Z" fill="#2F2E41"/>
<path d="M243.124 210.409L238.731 210.409L238.122 194.505L243.125 194.116L243.124 210.409Z" fill="#FFB8B8"/>
<path d="M244.245 214.504L230.079 214.504V214.331C230.079 213.635 230.221 212.946 230.498 212.303C230.775 211.659 231.182 211.075 231.694 210.583C232.206 210.09 232.813 209.7 233.482 209.434C234.151 209.167 234.868 209.03 235.593 209.03L244.245 209.03L244.245 214.504Z" fill="#2F2E41"/>
<path d="M241.874 207.436L238.453 207.049C238.065 207.004 237.707 206.826 237.445 206.547C237.184 206.268 237.036 205.907 237.029 205.531L236.388 162.69C236.386 162.569 236.34 162.452 236.258 162.36C236.175 162.268 236.062 162.207 235.938 162.188C235.813 162.168 235.686 162.191 235.577 162.253C235.468 162.314 235.386 162.411 235.344 162.525L230.597 175.411L230.937 199.565C230.942 199.964 230.788 200.349 230.506 200.641C230.224 200.934 229.835 201.11 229.421 201.134L224.955 201.316C224.546 201.338 224.144 201.211 223.829 200.961C223.513 200.71 223.308 200.354 223.254 199.964L220.922 172.64L220.92 172.623L224.46 144.087L251.044 145.937L243.664 206.078C243.618 206.455 243.429 206.802 243.134 207.055C242.839 207.307 242.458 207.446 242.064 207.447C242.001 207.447 241.937 207.444 241.874 207.436Z" fill="#2F2E41"/>
<path d="M224.573 146.617C224.335 146.494 224.132 146.316 223.985 146.098C223.837 145.88 223.749 145.63 223.729 145.37C223.729 145.37 226.12 131.077 226.996 130.808L225.079 115.523C224.85 113.659 225.01 111.769 225.55 109.965C226.091 108.161 227 106.479 228.226 105.017C229.406 103.6 230.873 102.427 232.538 101.569C234.203 100.711 236.032 100.187 237.913 100.027C238.181 100.004 238.447 99.9865 238.712 99.9742C240.98 99.8575 243.244 100.269 245.312 101.174C247.379 102.078 249.188 103.45 250.586 105.171C252.036 106.907 253.029 108.954 253.479 111.138C253.93 113.322 253.825 115.578 253.173 117.715L252.098 121.312V146.449C252.097 146.694 252.036 146.936 251.92 147.155C251.805 147.373 251.637 147.563 251.431 147.708C248.084 150.07 244.301 150.905 240.625 150.905C233.669 150.905 227.094 147.914 224.573 146.617Z" fill="#334C40"/>
<path d="M203.936 142.017L199.312 138.693C199.131 138.562 198.98 138.397 198.869 138.206C198.759 138.016 198.692 137.806 198.671 137.589C198.651 137.372 198.679 137.154 198.752 136.948C198.826 136.742 198.944 136.553 199.098 136.394L226.643 107.977C227.527 107.072 228.719 106.503 230.003 106.372C231.286 106.241 232.576 106.556 233.638 107.262C234.286 107.695 234.825 108.261 235.219 108.918C235.613 109.576 235.852 110.308 235.917 111.064C235.983 111.82 235.875 112.581 235.6 113.292C235.326 114.003 234.891 114.647 234.328 115.178L206.031 141.882C205.782 142.119 205.46 142.271 205.113 142.315C204.766 142.359 204.413 142.293 204.109 142.126C204.049 142.093 203.991 142.057 203.936 142.017Z" fill="#334C40"/>
<path d="M239.323 138.254C239.525 137.787 239.832 137.367 240.221 137.026C240.61 136.684 241.072 136.428 241.575 136.277C242.077 136.126 242.609 136.082 243.131 136.15C243.653 136.217 244.153 136.394 244.597 136.667L254.662 129.055L255.217 135.431L245.574 141.682C245.047 142.368 244.276 142.844 243.408 143.02C242.541 143.196 241.636 143.06 240.865 142.638C240.095 142.215 239.512 141.536 239.228 140.728C238.944 139.92 238.978 139.04 239.323 138.254Z" fill="#FFB8B8"/>
<path d="M248.332 141.226C248.066 141.147 247.825 141.001 247.635 140.805C247.445 140.609 247.312 140.368 247.249 140.107L246.232 136.001C246.157 135.71 246.174 135.404 246.279 135.121C246.384 134.838 246.573 134.592 246.823 134.412L253.664 127.299L243.602 112.381C242.84 111.479 242.411 110.36 242.381 109.199C242.351 108.038 242.722 106.9 243.436 105.963C244.006 105.217 244.77 104.628 245.652 104.257C246.534 103.886 247.502 103.746 248.459 103.851C249.416 103.956 250.326 104.302 251.099 104.854C251.872 105.406 252.479 106.145 252.859 106.995L262.214 124.502C263.144 126.241 263.376 128.249 262.866 130.142C262.355 132.035 261.139 133.682 259.447 134.768L249.887 140.908C249.594 141.16 249.215 141.299 248.823 141.3C248.656 141.299 248.491 141.275 248.332 141.226Z" fill="#334C40"/>
<path d="M246.727 97.0115C246.519 97.1312 246.286 97.2033 246.045 97.2224C245.804 97.2415 245.562 97.207 245.337 97.1216C245.112 97.0361 244.91 96.902 244.748 96.7297C244.585 96.5574 244.466 96.3514 244.4 96.1277L244.394 96.1066C244.215 95.4025 244.357 94.6656 244.403 93.942C244.449 93.2185 244.371 92.4243 243.856 91.8951C242.895 90.9087 241.199 91.443 239.817 91.1994C239.007 91.03 238.289 90.5826 237.797 89.941C237.306 89.2994 237.074 88.5075 237.146 87.7136C237.165 87.5631 237.195 87.4125 237.228 87.2619C237.313 86.8803 237.304 86.4852 237.203 86.1075C237.101 85.7298 236.91 85.3798 236.645 85.085C236.379 84.7903 236.046 84.5587 235.671 84.4085C235.297 84.2583 234.891 84.1936 234.487 84.2195C233.091 84.3034 231.587 84.7177 230.427 83.7298C230.001 83.3399 229.705 82.8382 229.574 82.2872C229.443 81.7363 229.484 81.1605 229.691 80.6317C230.34 78.7984 232.199 77.8308 234.04 77.2947C236.317 76.6494 238.715 76.5001 241.06 76.8576C243.405 77.2152 245.637 78.0706 247.595 79.3617C248.764 80.1452 249.858 81.1314 250.361 82.4132C250.865 83.695 250.634 85.3167 249.52 86.1703C250.392 87.0492 251.009 88.1331 251.309 89.3136C251.609 90.494 251.581 91.7295 251.227 92.8962C250.684 94.6121 248.054 96.268 246.727 97.0115Z" fill="#2F2E41"/>
<path d="M302 214.416C302 214.507 301.962 214.594 301.895 214.659C301.828 214.724 301.737 214.76 301.642 214.76H165.107C165.012 214.76 164.92 214.724 164.853 214.659C164.786 214.595 164.748 214.507 164.748 214.416C164.748 214.324 164.786 214.237 164.853 214.172C164.92 214.107 165.012 214.071 165.107 214.071H301.642C301.737 214.071 301.828 214.108 301.895 214.172C301.962 214.237 302 214.324 302 214.416Z" fill="#3F3D56"/>
</svg>
