<svg width="517" height="372" viewBox="0 0 517 372" fill="none" xmlns="http://www.w3.org/2000/svg">
<path d="M379.472 0.714478H0.751221V243.301H379.472V0.714478Z" fill="#E6E6E6"/>
<path d="M368.642 31.1407H11.5808V228.949H368.642V31.1407Z" fill="white"/>
<path d="M379.31 0.5H0.589722V16.5917H379.31V0.5Z" fill="#334C40"/>
<path d="M12.5465 11.7101C14.1936 11.7101 15.5288 10.3747 15.5288 8.72739C15.5288 7.08006 14.1936 5.74463 12.5465 5.74463C10.8994 5.74463 9.56421 7.08006 9.56421 8.72739C9.56421 10.3747 10.8994 11.7101 12.5465 11.7101Z" fill="white"/>
<path d="M23.8654 11.7101C25.5124 11.7101 26.8477 10.3747 26.8477 8.72739C26.8477 7.08006 25.5124 5.74463 23.8654 5.74463C22.2183 5.74463 20.8831 7.08006 20.8831 8.72739C20.8831 10.3747 22.2183 11.7101 23.8654 11.7101Z" fill="white"/>
<path d="M35.1843 11.7101C36.8314 11.7101 38.1666 10.3747 38.1666 8.72739C38.1666 7.08006 36.8314 5.74463 35.1843 5.74463C33.5372 5.74463 32.202 7.08006 32.202 8.72739C32.202 10.3747 33.5372 11.7101 35.1843 11.7101Z" fill="white"/>
<path d="M125.349 47.411H55.5129V123.189H125.349V47.411Z" fill="#E6E6E6"/>
<path d="M225.029 47.411H155.193V123.189H225.029V47.411Z" fill="#E6E6E6"/>
<path d="M324.708 47.411H254.872V123.189H324.708V47.411Z" fill="#E6E6E6"/>
<path d="M125.349 136.904H55.5129V212.682H125.349V136.904Z" fill="#E6E6E6"/>
<path d="M225.029 136.904H155.193V212.682H225.029V136.904Z" fill="#E6E6E6"/>
<path d="M324.708 136.904H254.872V212.682H324.708V136.904Z" fill="#E6E6E6"/>
<path d="M172.072 156.38L184.832 151.334L186.316 176.561C186.316 176.561 188.986 184.277 188.096 187.245C188.096 187.245 188.69 192.291 187.206 192.587C185.722 192.884 181.567 193.478 181.273 193.181C180.979 192.884 180.976 191.994 180.976 191.994C180.976 191.994 178.009 194.071 177.712 196.445C177.712 196.445 165.249 200.303 164.952 196.742C164.656 193.18 171.183 190.212 171.183 190.212L176.228 182.496L172.072 156.38Z" fill="white"/>
<path d="M199.077 156.38L211.835 151.334L213.319 176.561C213.319 176.561 215.989 184.277 215.099 187.245C215.099 187.245 215.692 192.291 214.209 192.587C212.725 192.884 208.569 193.478 208.276 193.181C207.982 192.884 207.979 191.994 207.979 191.994C207.979 191.994 205.011 194.071 204.715 196.445C204.715 196.445 192.252 200.303 191.955 196.742C191.658 193.18 198.186 190.212 198.186 190.212L203.231 182.496L199.077 156.38Z" fill="white"/>
<path d="M200.323 58.9625C200.323 58.9625 197.607 66.5554 200.755 69.9794L198.13 78.9994C198.13 78.9994 207.455 106.978 204.791 110.886C204.791 110.886 194.845 115.859 174.95 109.109L183.031 77.7556L181.877 64.5215L183.475 58.3039L187.027 57.9514C187.027 57.9514 184.896 65.945 188.804 67.1888C192.711 68.4325 196.523 58.1512 196.523 58.1512L200.323 58.9625Z" fill="#3F3D56"/>
<path d="M74.8512 107.976L78.2799 109.379L94.6441 87.869L99.7869 113.12L103.216 112.497C105.415 90.7266 107.21 68.5219 105.008 58.0197L92.3062 57.4739L86.5401 75.8692L83.7346 88.339L74.8512 107.976Z" fill="white"/>
<path d="M282.947 57.8475C282.947 57.8475 278.267 64.3536 278.496 66.9791C278.724 69.6047 281.691 112.409 281.691 112.409L288.653 112.752L286.597 81.9323L288.309 73.5997L292.532 112.409L301.092 112.638L293.445 62.2996L291.962 57.8481L282.947 57.8475Z" fill="white"/>
<path d="M309.393 162.662C308.151 161.171 306.015 160.365 303.964 159.929C304.023 159.742 297.727 158.441 297.62 158.709L295.246 156.818L287.953 160.606L283.854 157.815L281.95 158.491C282.028 158.154 276.04 159.192 276.04 159.192C274.897 159.233 273.436 159.305 271.8 159.43C266.074 159.871 265.633 174.706 265.633 174.706C268.267 173.628 271.077 173.039 273.923 172.97L275.471 190.712C283.432 190.03 291.781 190.824 300.436 192.768L304.494 178.821L313.945 175.145C313.945 175.145 312.33 166.186 309.393 162.662Z" fill="#3F3D56"/>
<path d="M106.583 154.213C105.559 152.984 103.8 152.32 102.11 151.961C102.161 151.807 96.9708 150.735 96.8821 150.956L94.9261 149.398L88.9174 152.519L85.5404 150.22L83.972 150.777C84.036 150.5 79.1023 151.355 79.1023 151.355C78.1624 151.389 76.9559 151.448 75.6089 151.552C70.8902 151.915 70.5272 164.136 70.5272 164.136C72.6983 163.248 75.0132 162.763 77.3583 162.706L78.6335 198.493C85.1932 197.93 92.073 198.585 99.2018 200.187L102.545 167.528L110.333 164.5C110.333 164.5 109.003 157.118 106.583 154.213Z" fill="white"/>
<path d="M440.827 163.739H474.31V145.82C474.31 141.379 472.546 137.12 469.406 133.98C466.267 130.84 462.008 129.076 457.568 129.076C453.128 129.076 448.87 130.84 445.73 133.98C442.591 137.12 440.827 141.379 440.827 145.82V163.739Z" fill="#2F2E41"/>
<path d="M425.88 363.105H418.679L415.253 335.321H425.881L425.88 363.105Z" fill="#FFB6B6"/>
<path d="M427.717 360.753H413.534C411.137 360.753 408.839 361.706 407.144 363.401C405.449 365.096 404.496 367.395 404.496 369.792V370.086H427.717V360.753Z" fill="#2F2E41"/>
<path d="M511.968 353.493L505.697 357.034L489.057 334.526L498.313 329.3L511.968 353.493Z" fill="#FFB6B6"/>
<path d="M512.412 350.542L500.061 357.513C497.974 358.692 496.44 360.651 495.798 362.961C495.155 365.271 495.456 367.741 496.634 369.829L496.779 370.084L517 358.667L512.412 350.542Z" fill="#2F2E41"/>
<path d="M465.942 238.16L466.498 240.939C466.498 240.939 468.165 242.606 467.331 243.44C466.498 244.273 466.775 248.164 466.775 248.164C467.242 255.259 476.511 295.127 478.168 302.913C478.168 302.913 490.95 311.251 500.954 327.647C510.957 344.044 511.233 348.213 511.233 348.213L500.121 352.938L472.336 319.311C472.336 319.311 464.556 314.586 461.777 310.417C458.998 306.249 441.767 263.172 441.767 263.172L432.039 308.194C432.039 308.194 432.595 324.59 430.094 335.151C428.557 341.816 427.627 348.606 427.316 355.439L414.256 354.05C414.256 354.05 415.09 314.586 416.479 310.417C416.479 310.417 410.643 262.338 422.314 243.162L431.72 218.083L440.932 214.537L465.942 238.16Z" fill="#2F2E41"/>
<path d="M457.741 133.456C440.209 133.756 440.211 159.839 457.741 160.136C475.272 159.836 475.27 133.753 457.741 133.456Z" fill="#FFB8B8"/>
<path d="M444.248 146.104H447.228L448.039 144.075L447.633 146.104H463.931L463.402 141.858L467.363 146.104H471.315V143.804C471.316 142.026 470.967 140.266 470.289 138.623C469.61 136.981 468.614 135.488 467.358 134.23C466.102 132.972 464.611 131.974 462.97 131.293C461.328 130.612 459.569 130.26 457.792 130.259C456.015 130.258 454.255 130.607 452.612 131.286C450.97 131.965 449.477 132.961 448.22 134.217C446.962 135.472 445.964 136.964 445.283 138.606C444.602 140.247 444.251 142.007 444.249 143.784V143.804L444.248 146.104Z" fill="#2F2E41"/>
<path d="M439.662 167.925L472.792 168.194L465.792 239.233C465.792 239.233 427.047 237.188 427.023 225.36L430.652 214.849L439.662 167.925Z" fill="#3F3D56"/>
<path d="M474.216 246.1C473.706 245.477 473.34 244.749 473.143 243.968C472.945 243.187 472.921 242.373 473.072 241.582C473.223 240.791 473.546 240.042 474.018 239.39C474.489 238.737 475.098 238.196 475.802 237.804L474.362 225.297L481.748 222.568L483.533 240.259C484.109 241.484 484.217 242.878 483.835 244.177C483.454 245.476 482.61 246.591 481.463 247.31C480.316 248.029 478.945 248.303 477.61 248.08C476.275 247.857 475.067 247.153 474.216 246.1Z" fill="#FFB6B6"/>
<path d="M468.436 174.314L472.795 168.22C472.795 168.22 475.778 167.557 479.303 171.67C482.827 175.783 484.883 227.189 484.883 227.189L471.96 230.127L464.324 193.701L468.436 174.314Z" fill="#3F3D56"/>
<path d="M395.411 230.061L396.372 275.732L425.934 291.356L479.769 281.741L481.091 234.267L446.963 222.248L395.411 230.061Z" fill="white"/>
<path d="M425.857 291.849L395.906 276.019L394.93 229.656L447.009 221.764L447.12 221.803L481.573 233.936L480.231 282.138L425.857 291.849ZM396.838 275.444L426.011 290.863L479.308 281.344L480.61 234.598L446.918 222.733L395.892 230.465L396.838 275.444Z" fill="#CACACA"/>
<path d="M425.274 242.444L425.158 242.398L395.237 230.499L395.585 229.622L425.392 241.474L481.027 233.8L481.156 234.735L425.274 242.444Z" fill="#CACACA"/>
<path d="M425.805 241.953L424.861 241.965L425.462 291.362L426.406 291.35L425.805 241.953Z" fill="#CACACA"/>
<path d="M421.493 240.08L410.707 235.706L462.631 227.431L473.417 231.804L421.493 240.08Z" fill="#CACACA"/>
<path d="M395.598 243.309L395.224 244.177L407.734 249.564L408.107 248.696L395.598 243.309Z" fill="#CACACA"/>
<path d="M401.262 258.89L400.889 259.757L413.399 265.144L413.772 264.277L401.262 258.89Z" fill="#334C40"/>
<path d="M230.935 293.511L231.896 339.182L261.458 354.807L315.293 345.192L316.615 297.718L282.487 285.699L230.935 293.511Z" fill="white"/>
<path d="M261.381 355.3L231.43 339.47L230.454 293.107L282.533 285.215L282.644 285.254L317.097 297.387L315.755 345.589L261.381 355.3ZM232.362 338.895L261.535 354.313L314.832 344.794L316.134 298.049L282.442 286.183L231.416 293.916L232.362 338.895Z" fill="#CACACA"/>
<path d="M260.798 305.894L260.682 305.848L230.761 293.95L231.109 293.073L260.916 304.925L316.551 297.25L316.68 298.186L260.798 305.894Z" fill="#CACACA"/>
<path d="M261.329 305.404L260.385 305.415L260.986 354.812L261.93 354.801L261.329 305.404Z" fill="#CACACA"/>
<path d="M254.404 302.455L246.231 299.157L298.155 290.882L306.328 294.18L254.404 302.455Z" fill="#CACACA"/>
<path d="M231.122 306.76L230.748 307.627L243.258 313.014L243.631 312.147L231.122 306.76Z" fill="#CACACA"/>
<path d="M236.786 322.34L236.413 323.208L248.923 328.595L249.296 327.727L236.786 322.34Z" fill="#334C40"/>
<path d="M282.292 299.773L283.408 352.79L317.724 370.927L380.218 359.766L381.753 304.656L342.136 290.704L282.292 299.773Z" fill="#334C40"/>
<path d="M317.634 371.5L282.866 353.124L281.734 299.303L342.189 290.142L342.318 290.187L382.312 304.272L380.754 360.227L317.634 371.5ZM283.948 352.456L317.813 370.355L379.683 359.305L381.194 305.041L342.083 291.267L282.85 300.243L283.948 352.456Z" fill="#5C8A73"/>
<path d="M316.958 314.148L316.824 314.095L282.089 300.282L282.494 299.264L317.094 313.022L381.677 304.114L381.827 305.199L316.958 314.148Z" fill="#5C8A73"/>
<path d="M317.574 313.579L316.478 313.592L317.176 370.934L318.272 370.921L317.574 313.579Z" fill="#5C8A73"/>
<path d="M310.091 310.181L300.047 306.327L360.323 296.721L370.367 300.574L310.091 310.181Z" fill="#5C8A73"/>
<path d="M282.508 315.153L282.075 316.159L296.597 322.413L297.03 321.406L282.508 315.153Z" fill="#5C8A73"/>
<path d="M289.084 333.239L288.651 334.246L303.173 340.499L303.606 339.493L289.084 333.239Z" fill="white"/>
<path d="M412.172 237.613C412.901 237.27 413.546 236.773 414.061 236.154C414.577 235.536 414.951 234.812 415.157 234.033C415.362 233.255 415.395 232.441 415.252 231.648C415.109 230.856 414.794 230.104 414.329 229.446L421.039 218.795L415.562 213.138L406.298 228.313C405.245 229.167 404.543 230.378 404.323 231.716C404.103 233.054 404.382 234.426 405.106 235.572C405.83 236.718 406.949 237.559 408.251 237.935C409.553 238.311 410.948 238.197 412.172 237.613V237.613Z" fill="#FFB6B6"/>
<path d="M444.753 170.725L439.946 167.557C439.946 167.557 436.236 168.389 432.291 175.979C428.346 183.568 412.437 217.499 412.437 217.499L418.976 224.138L436.423 197.518L444.753 170.725Z" fill="#3F3D56"/>
</svg>
