<svg width="54" height="55" viewBox="0 0 54 55" fill="none" xmlns="http://www.w3.org/2000/svg">
<ellipse cx="27" cy="27.1429" rx="27" ry="27.1429" fill="#F4F3FF"/>
<path d="M25.002 24.5C25.002 24.8978 24.844 25.2794 24.5627 25.5607C24.2814 25.842 23.8998 26 23.502 26C23.1042 26 22.7226 25.842 22.4413 25.5607C22.16 25.2794 22.002 24.8978 22.002 24.5C22.002 24.1022 22.16 23.7206 22.4413 23.4393C22.7226 23.158 23.1042 23 23.502 23C23.8998 23 24.2814 23.158 24.5627 23.4393C24.844 23.7206 25.002 24.1022 25.002 24.5Z" fill="#212529"/>
<path d="M20.5 21C20.1022 21 19.7206 21.158 19.4393 21.4393C19.158 21.7206 19 22.1022 19 22.5V31.5C19 31.8978 19.158 32.2794 19.4393 32.5607C19.7206 32.842 20.1022 33 20.5 33H33.5C33.8978 33 34.2794 32.842 34.5607 32.5607C34.842 32.2794 35 31.8978 35 31.5V22.5C35 22.1022 34.842 21.7206 34.5607 21.4393C34.2794 21.158 33.8978 21 33.5 21H20.5ZM33.5 22C33.6326 22 33.7598 22.0527 33.8536 22.1464C33.9473 22.2402 34 22.3674 34 22.5V28.5L30.225 26.553C30.1312 26.506 30.025 26.4897 29.9215 26.5064C29.8179 26.5231 29.7223 26.5719 29.648 26.646L25.938 30.356L23.278 28.584C23.182 28.5201 23.0668 28.4913 22.9519 28.5026C22.8371 28.5139 22.7297 28.5646 22.648 28.646L20.002 31V31.54C20.0008 31.5267 20.0001 31.5134 20 31.5V22.5C20 22.3674 20.0527 22.2402 20.1464 22.1464C20.2402 22.0527 20.3674 22 20.5 22H33.5Z" fill="#212529"/>
</svg>
