<svg width="452" height="472" viewBox="0 0 452 472" fill="none" xmlns="http://www.w3.org/2000/svg">
<rect width="452" height="472" rx="15" fill="#F1F1F1"/>
<path d="M223.003 224.25C223.003 224.847 222.766 225.419 222.344 225.841C221.922 226.263 221.35 226.5 220.753 226.5C220.156 226.5 219.584 226.263 219.162 225.841C218.74 225.419 218.503 224.847 218.503 224.25C218.503 223.653 218.74 223.081 219.162 222.659C219.584 222.237 220.156 222 220.753 222C221.35 222 221.922 222.237 222.344 222.659C222.766 223.081 223.003 223.653 223.003 224.25Z" fill="#212529"/>
<path d="M216.25 219C215.653 219 215.081 219.237 214.659 219.659C214.237 220.081 214 220.653 214 221.25V234.75C214 235.347 214.237 235.919 214.659 236.341C215.081 236.763 215.653 237 216.25 237H235.75C236.347 237 236.919 236.763 237.341 236.341C237.763 235.919 238 235.347 238 234.75V221.25C238 220.653 237.763 220.081 237.341 219.659C236.919 219.237 236.347 219 235.75 219H216.25ZM235.75 220.5C235.949 220.5 236.14 220.579 236.28 220.72C236.421 220.86 236.5 221.051 236.5 221.25V230.25L230.838 227.33C230.697 227.259 230.538 227.235 230.382 227.26C230.227 227.285 230.083 227.358 229.972 227.469L224.407 233.034L220.417 230.376C220.273 230.28 220.1 230.237 219.928 230.254C219.756 230.271 219.595 230.347 219.472 230.469L215.503 234V234.81C215.501 234.79 215.5 234.77 215.5 234.75V221.25C215.5 221.051 215.579 220.86 215.72 220.72C215.86 220.579 216.051 220.5 216.25 220.5H235.75Z" fill="#212529"/>
</svg>
