<svg width="272" height="206" viewBox="0 0 272 206" fill="none" xmlns="http://www.w3.org/2000/svg">
<g clip-path="url(#clip0_605_6428)">
<path d="M108.941 42.7197H107.952V15.6609C107.952 13.6043 107.547 11.5678 106.759 9.66773C105.971 7.76767 104.817 6.04122 103.361 4.58698C101.905 3.13273 100.177 1.97915 98.2757 1.19212C96.3739 0.405085 94.3356 1.74253e-06 92.2771 0H34.8981C30.7408 -7.91804e-06 26.7539 1.64996 23.8142 4.58694C20.8746 7.52392 19.2232 11.5073 19.2231 15.6608V164.107C19.2231 166.164 19.6286 168.2 20.4163 170.101C21.2041 172.001 22.3587 173.727 23.8142 175.181C25.2698 176.636 26.9977 177.789 28.8995 178.576C30.8013 179.363 32.8396 179.768 34.898 179.768H92.2771C96.4343 179.768 100.421 178.118 103.361 175.181C106.301 172.244 107.952 168.261 107.952 164.107V61.9805H108.941V42.7197Z" fill="#3F3D56"/>
<path d="M92.9096 4.07446H85.4197C85.7641 4.91816 85.8956 5.83354 85.8026 6.73997C85.7095 7.6464 85.3947 8.51605 84.886 9.27231C84.3773 10.0286 83.6903 10.6482 82.8854 11.0767C82.0806 11.5052 81.1826 11.7294 80.2706 11.7294H47.3989C46.4869 11.7294 45.5889 11.5052 44.784 11.0767C43.9791 10.6483 43.2921 10.0286 42.7834 9.27232C42.2747 8.51605 41.9599 7.6464 41.8669 6.73997C41.7738 5.83355 41.9053 4.91816 42.2497 4.07446H35.2542C33.717 4.07446 32.1948 4.37697 30.7746 4.96472C29.3543 5.55246 28.0639 6.41394 26.9769 7.49995C25.8899 8.58597 25.0277 9.87525 24.4394 11.2942C23.8511 12.7131 23.5483 14.234 23.5483 15.7698V163.999C23.5483 165.534 23.8511 167.055 24.4394 168.474C25.0277 169.893 25.8899 171.182 26.9769 172.268C28.0639 173.354 29.3543 174.216 30.7746 174.804C32.1948 175.391 33.7169 175.694 35.2542 175.694H92.9096C94.4468 175.694 95.969 175.391 97.3892 174.804C98.8094 174.216 100.1 173.354 101.187 172.268C102.274 171.182 103.136 169.893 103.724 168.474C104.313 167.055 104.615 165.534 104.615 163.999V15.7698C104.615 14.234 104.313 12.7131 103.724 11.2942C103.136 9.87525 102.274 8.58597 101.187 7.49995C100.1 6.41394 98.8094 5.55246 97.3892 4.96472C95.969 4.37697 94.4468 4.07446 92.9096 4.07446Z" fill="white"/>
<path d="M127.332 179.794H0.83202C0.743963 179.794 0.659512 179.759 0.597246 179.697C0.53498 179.634 0.5 179.55 0.5 179.462C0.5 179.374 0.53498 179.29 0.597246 179.228C0.659512 179.165 0.743963 179.13 0.83202 179.13H127.332C127.42 179.13 127.504 179.165 127.566 179.228C127.629 179.29 127.664 179.374 127.664 179.462C127.664 179.55 127.629 179.634 127.566 179.697C127.504 179.759 127.42 179.794 127.332 179.794Z" fill="#CBCBCB"/>
<path d="M64.0818 114.67C79.5667 114.67 92.1196 102.128 92.1196 86.6573C92.1196 71.1863 79.5667 58.6445 64.0818 58.6445C48.5969 58.6445 36.0439 71.1863 36.0439 86.6573C36.0439 102.128 48.5969 114.67 64.0818 114.67Z" fill="#344E41"/>
<path d="M61.3035 97.3431C60.6727 97.3442 60.0587 97.1403 59.5541 96.7622L59.5228 96.7388L52.9335 91.7027C52.6283 91.469 52.3722 91.1774 52.1798 90.8448C51.9874 90.5122 51.8624 90.1449 51.8121 89.764C51.7617 89.3831 51.7869 88.9961 51.8863 88.6249C51.9857 88.2538 52.1572 87.9058 52.3912 87.6009C52.6252 87.296 52.9169 87.0401 53.2499 86.8479C53.5828 86.6557 53.9504 86.5308 54.3316 86.4805C54.7129 86.4302 55.1003 86.4554 55.4718 86.5547C55.8432 86.654 56.1915 86.8254 56.4967 87.0591L60.7647 90.3291L70.8502 77.1832C71.084 76.8784 71.3757 76.6227 71.7085 76.4305C72.0413 76.2383 72.4087 76.1136 72.7898 76.0633C73.1709 76.013 73.5581 76.0382 73.9295 76.1374C74.3008 76.2366 74.6489 76.408 74.954 76.6416L74.9548 76.6423L74.8922 76.7291L74.9565 76.6423C75.5719 77.1148 75.9746 77.812 76.0761 78.5809C76.1776 79.3497 75.9697 80.1274 75.4979 80.7432L63.6352 96.1988C63.3607 96.5549 63.0079 96.843 62.6039 97.0409C62.2 97.2387 61.7559 97.341 61.3061 97.3397L61.3035 97.3431Z" fill="white"/>
<path d="M231.003 182.547C231.344 181.996 231.746 181.485 232.201 181.023C232.388 180.829 232.586 180.646 232.79 180.468C234.029 179.365 235.54 178.613 237.168 178.287C238.795 177.962 240.48 178.075 242.049 178.616C243.618 179.157 245.014 180.105 246.095 181.364C247.175 182.622 247.9 184.146 248.196 185.778C249.565 180.718 246.001 175.734 242.417 171.906C238.831 168.08 234.733 163.882 234.753 158.638C234.763 155.72 236.192 153.117 238.349 151.187C238.416 151.129 238.482 151.071 238.55 151.014C241.157 148.782 244.511 147.614 247.942 147.744C254.317 148.085 259.882 152.365 263.748 157.443C269.97 165.612 272.696 177.08 268.34 186.379C264.509 194.558 256.338 199.415 247.999 203.32C246.834 203.865 245.672 204.394 244.513 204.907C244.505 204.909 244.497 204.914 244.489 204.916C244.433 204.941 244.377 204.965 244.325 204.991C244.085 205.096 243.846 205.202 243.609 205.306L243.719 205.378L244.061 205.599C243.943 205.527 243.825 205.458 243.706 205.386C243.671 205.364 243.633 205.344 243.598 205.322C239.502 202.866 235.35 200.269 232.52 196.436C229.586 192.456 228.406 186.755 231.003 182.547Z" fill="#F1F1F1"/>
<path d="M258.33 173.304C259.237 175.366 259.838 177.548 260.114 179.783C260.332 181.775 260.25 183.789 259.872 185.758C259.058 189.803 257.285 193.594 254.7 196.812C252.749 199.255 250.498 201.441 247.999 203.32C246.835 203.866 245.672 204.394 244.513 204.907C244.505 204.909 244.497 204.914 244.489 204.916C244.433 204.941 244.377 204.965 244.325 204.991C244.085 205.096 243.846 205.202 243.609 205.306L243.719 205.378L244.062 205.6C243.943 205.528 243.825 205.458 243.706 205.386C243.671 205.364 243.633 205.344 243.598 205.322C244.5 202.172 244.632 198.852 243.985 195.64C243.337 192.428 241.929 189.418 239.877 186.863C237.815 184.339 235.184 182.338 232.201 181.023C232.388 180.829 232.586 180.646 232.79 180.468C233.939 180.995 235.039 181.623 236.078 182.344C239.792 184.909 242.581 188.6 244.033 192.872C245.328 196.748 245.49 200.913 244.499 204.877C244.705 204.743 244.911 204.605 245.112 204.468C248.927 201.897 252.444 198.809 255.092 195.023C257.377 191.823 258.839 188.111 259.349 184.214C259.857 179.957 258.791 175.771 256.889 171.972C254.788 167.908 252.141 164.15 249.021 160.803C245.887 157.363 242.344 154.319 238.471 151.739C238.383 151.681 238.322 151.59 238.299 151.488C238.277 151.385 238.294 151.278 238.349 151.188C238.391 151.106 238.463 151.043 238.55 151.014C238.594 151.003 238.641 151.002 238.685 151.011C238.73 151.02 238.772 151.039 238.809 151.067C239.287 151.385 239.761 151.707 240.229 152.038C244.13 154.798 247.673 158.031 250.776 161.664C253.775 165.165 256.503 169.055 258.33 173.304Z" fill="white"/>
<path d="M174.825 13.0069C178.113 13.0069 180.779 10.3434 180.779 7.05778C180.779 3.77216 178.113 1.10864 174.825 1.10864C171.536 1.10864 168.87 3.77216 168.87 7.05778C168.87 10.3434 171.536 13.0069 174.825 13.0069Z" fill="#F1F1F1"/>
<path d="M248.865 92.6206C250.87 92.6206 252.495 90.9967 252.495 88.9935C252.495 86.9904 250.87 85.3665 248.865 85.3665C246.86 85.3665 245.235 86.9904 245.235 88.9935C245.235 90.9967 246.86 92.6206 248.865 92.6206Z" fill="#F1F1F1"/>
<path d="M142.619 102.572C144.624 102.572 146.249 100.948 146.249 98.9452C146.249 96.942 144.624 95.3181 142.619 95.3181C140.614 95.3181 138.988 96.942 138.988 98.9452C138.988 100.948 140.614 102.572 142.619 102.572Z" fill="#F1F1F1"/>
<path d="M144.668 206H271.168C271.256 206 271.34 205.965 271.403 205.903C271.465 205.84 271.5 205.756 271.5 205.668C271.5 205.58 271.465 205.496 271.403 205.434C271.34 205.371 271.256 205.336 271.168 205.336H144.668C144.58 205.336 144.496 205.371 144.433 205.434C144.371 205.496 144.336 205.58 144.336 205.668C144.336 205.756 144.371 205.84 144.433 205.903C144.496 205.965 144.58 206 144.668 206Z" fill="#CBCBCB"/>
<path d="M257.208 32.0562C257.374 30.8779 257.102 29.6797 256.443 28.6886C255.784 27.6975 254.784 26.9824 253.632 26.6788C252.481 26.3751 251.258 26.504 250.195 27.0411C249.132 27.5781 248.303 28.486 247.866 29.5927L237.601 41.3504L240.613 49.7552L250.936 36.0168C251.61 36.2324 252.323 36.2978 253.024 36.2084C253.726 36.119 254.4 35.877 254.998 35.4994C255.596 35.1217 256.103 34.6177 256.485 34.0228C256.867 33.4279 257.114 32.7566 257.208 32.0562Z" fill="#FFB7B7"/>
<path d="M214.657 77.8052L248.732 41.4719L244.136 34.1714L201.397 70.2841L214.657 77.8052Z" fill="#3F3D56"/>
<path d="M207.052 55.7295C213.654 55.7295 219.005 50.3829 219.005 43.7875C219.005 37.1921 213.654 31.8455 207.052 31.8455C200.451 31.8455 195.1 37.1921 195.1 43.7875C195.1 50.3829 200.451 55.7295 207.052 55.7295Z" fill="#2F2E41"/>
<path d="M208.013 37.0412C210.585 34.4353 213.698 32.4244 217.131 31.15C219.336 30.3342 221.735 29.8301 224.039 30.2935C226.344 30.7568 228.523 32.3495 229.166 34.6084C229.691 36.4556 229.149 38.4444 228.333 40.1832C227.517 41.922 226.428 43.5344 225.768 45.3381C225.095 47.1785 224.892 49.1578 225.179 51.0962C225.466 53.0346 226.232 54.8708 227.409 56.4381C228.587 58.0054 230.137 59.2541 231.919 60.071C233.702 60.8878 235.661 61.2469 237.618 61.1156C235.353 61.419 233.266 62.482 231.053 63.0479C228.84 63.6137 226.228 63.5753 224.583 61.9913C222.843 60.3153 222.808 57.5902 222.893 55.1768C223.018 51.5893 223.143 48.0017 223.268 44.4141C223.332 42.5845 223.386 40.6963 222.726 38.9886C222.065 37.2809 220.496 35.7856 218.663 35.8011C217.275 35.8129 216.046 36.6534 214.932 37.4823C213.818 38.3112 212.64 39.1956 211.256 39.3189C209.873 39.4422 208.294 38.4194 208.397 37.0358L208.013 37.0412Z" fill="#2F2E41"/>
<path d="M161.655 123.972C160.507 124.291 159.283 124.178 158.213 123.654C157.144 123.131 156.303 122.234 155.852 121.133C155.4 120.032 155.368 118.804 155.762 117.681C156.156 116.558 156.949 115.619 157.99 115.041L168.316 103.336L177.05 105.222L164.766 117.243C165.068 117.882 165.226 118.579 165.229 119.286C165.232 119.993 165.079 120.691 164.783 121.333C164.486 121.975 164.053 122.544 163.512 123C162.972 123.456 162.338 123.788 161.655 123.972Z" fill="#FFB7B7"/>
<path d="M195.628 82.07L169.891 114.347L162.046 110.748L192.297 63.6948L195.628 82.07Z" fill="#3F3D56"/>
<path d="M175.092 179.532L168.958 179.436L169.696 200.323H175.091L175.092 179.532Z" fill="#FFB7B7"/>
<path d="M176.467 198.563L165.842 198.563H165.842C164.046 198.563 162.324 199.276 161.054 200.544C159.784 201.813 159.071 203.534 159.071 205.328V205.548L176.467 205.548L176.467 198.563Z" fill="#2F2E41"/>
<path d="M215.704 173.992L209.003 178.29L222.406 194.4L226.946 191.488L215.704 173.992Z" fill="#FFB7B7"/>
<path d="M227.153 189.264L218.212 194.999L218.211 194.999C216.7 195.969 215.636 197.498 215.254 199.251C214.872 201.004 215.202 202.837 216.172 204.347L216.291 204.532L230.93 195.142L227.153 189.264Z" fill="#2F2E41"/>
<path d="M218.091 110.212C218.091 110.212 203.203 60.809 198.419 60.1414C193.634 59.4738 185.926 72.8176 185.926 72.8176C175.931 85.5585 165.625 126.829 165.625 126.829C165.625 126.829 182.805 127.903 195.365 134.579C207.924 141.255 222.746 134.241 222.746 134.241L218.091 110.212Z" fill="#3F3D56"/>
<path opacity="0.1" d="M218.091 110.212C218.091 110.212 203.203 60.809 198.419 60.1414C193.634 59.4738 187.883 72.953 187.883 72.953C182.903 93.5198 165.625 126.829 165.625 126.829C165.625 126.829 182.805 127.903 195.365 134.579C207.924 141.255 222.746 134.241 222.746 134.241L218.091 110.212Z" fill="black"/>
<path d="M205.877 95.4308V120.255L208.801 156.215L223.41 183.417L216.437 188.393L196.516 162.518L188.637 136.826L176.263 193.7L166.966 193.037L173.423 114.182L185.675 91.9868L205.877 95.4308Z" fill="#2F2E41"/>
<path d="M190.866 71.4199C186.218 76.0641 190.534 81.0399 190.534 81.0399L185.222 92.9819L206.139 98.6212L213.449 65.9869L208.469 60.6793C198.508 60.3476 198.503 60.1414 198.503 60.1414C196.758 61.8477 190.866 71.4199 190.866 71.4199Z" fill="#344E41"/>
<path d="M214.291 62.6058C213.341 61.9052 212.262 61.3998 211.115 61.1191C209.968 60.8383 208.777 60.7876 207.61 60.9701C206.444 61.1525 205.325 61.5644 204.319 62.1819C203.312 62.7994 202.439 63.6102 201.749 64.5673C196.49 71.8826 191.628 83.6948 198.327 98.4269C209.084 122.082 218.445 134.191 222.251 134.19C222.417 134.192 222.582 134.166 222.74 134.113C225.083 133.319 228.469 129.359 229.083 125.869C229.302 124.62 229.25 122.88 227.755 121.685C223.46 118.253 215.75 107.567 213.344 93.5009C212.015 85.7287 214.593 78.649 216.989 74.0786C218.001 72.1875 218.298 69.9952 217.823 67.9037C217.349 65.8121 216.136 63.9614 214.407 62.6908L214.291 62.6058Z" fill="#3F3D56"/>
<path d="M207.667 54.5563C211.931 52.2275 213.498 46.8863 211.167 42.6263C208.836 38.3663 203.49 36.8007 199.226 39.1294C194.963 41.4581 193.396 46.7994 195.726 51.0594C198.057 55.3194 203.403 56.885 207.667 54.5563Z" fill="#FFB7B7"/>
<path d="M191.073 46.1783H203.778L203.908 44.3559L204.559 46.1783H206.516L206.774 42.5663L208.065 46.1783H211.85V45.9993C211.847 43.4847 210.846 41.0739 209.067 39.2958C207.287 37.5177 204.874 36.5175 202.357 36.5146H200.566C198.049 36.5175 195.636 37.5177 193.856 39.2958C192.077 41.0739 191.076 43.4847 191.073 45.9993V46.1783Z" fill="#2F2E41"/>
<path d="M209.931 52.7288L215.353 50.9711V37.8164H205.112L205.365 38.0693C208.893 41.5892 212.816 54.0773 209.931 52.7288Z" fill="#2F2E41"/>
</g>
<defs>
<clipPath id="clip0_605_6428">
<rect width="271" height="206" fill="white" transform="translate(0.5)"/>
</clipPath>
</defs>
</svg>
