<svg width="13" height="14" viewBox="0 0 13 14" fill="none" xmlns="http://www.w3.org/2000/svg">
<path d="M9.4375 3.5V3.0625C9.4375 2.25027 9.11484 1.47132 8.54051 0.896985C7.96618 0.322655 7.18723 0 6.375 0C5.56277 0 4.78382 0.322655 4.20949 0.896985C3.63516 1.47132 3.3125 2.25027 3.3125 3.0625V3.5H0.25V12.25C0.25 12.7141 0.434374 13.1592 0.762563 13.4874C1.09075 13.8156 1.53587 14 2 14H10.75C11.2141 14 11.6592 13.8156 11.9874 13.4874C12.3156 13.1592 12.5 12.7141 12.5 12.25V3.5H9.4375ZM6.375 0.875C6.95516 0.875 7.51156 1.10547 7.9218 1.5157C8.33203 1.92594 8.5625 2.48234 8.5625 3.0625V3.5H4.1875V3.0625C4.1875 2.48234 4.41797 1.92594 4.8282 1.5157C5.23844 1.10547 5.79484 0.875 6.375 0.875ZM6.375 6.99388C7.831 5.49675 11.4719 8.1165 6.375 11.4844C1.27813 8.11563 4.919 5.49675 6.375 6.99388Z" fill="white"/>
</svg>
