<svg width="130" height="30" viewBox="0 0 130 30" fill="none" xmlns="http://www.w3.org/2000/svg">
<path d="M0 9.47274H23.0775V25.9664C23.0775 27.7882 21.6012 29.2649 19.7805 29.2649H3.29704C1.47631 29.2649 0 27.7882 0 25.9664V9.47274Z" fill="#344E41"/>
<path d="M11.5386 0.681274C8.40679 0.681274 5.86794 3.22163 5.86794 6.35574V9.47274H7.38027V6.35574C7.38027 4.05776 9.24197 2.1945 11.5386 2.1945C13.8357 2.1945 15.6974 4.05776 15.6974 6.35574V9.47274H17.2097V6.35574C17.2097 3.22163 14.6709 0.681274 11.5386 0.681274Z" fill="#344E41"/>
<path d="M11.5386 19.3688C11.5386 22.7115 8.83049 25.4217 5.48978 25.4217C5.48978 22.079 8.19792 19.3688 11.5386 19.3688C8.19792 19.3688 5.48978 16.6591 5.48978 13.3164C8.83049 13.3164 11.5386 16.0261 11.5386 19.3688C11.5386 16.0261 14.2472 13.3164 17.5879 13.3164C17.5879 16.6591 14.8798 19.3688 11.5386 19.3688C14.8798 19.3688 17.5879 22.079 17.5879 25.4217C14.2472 25.4217 11.5386 22.7115 11.5386 19.3688Z" fill="white"/>
<path d="M40.7291 13.9079C40.3351 13.0781 39.7643 12.4352 39.0164 11.9798C38.2681 11.5234 37.3978 11.295 36.4051 11.295C35.4119 11.295 34.5177 11.5234 33.7217 11.9798C32.9266 12.4352 32.3012 13.088 31.8451 13.9385C31.3899 14.7891 31.1626 15.7725 31.1626 16.8884C31.1626 18.0034 31.3899 18.9832 31.8451 19.8275C32.3012 20.6708 32.9266 21.3209 33.7217 21.7772C34.5177 22.2327 35.4119 22.4602 36.4051 22.4602C37.7918 22.4602 38.934 22.0453 39.8322 21.215C40.73 20.3852 41.2536 19.2625 41.4026 17.8471H35.7315V16.337H43.3819V17.766C43.2725 18.9364 42.9051 20.0077 42.2797 20.9807C41.6539 21.9538 40.8308 22.7228 39.8106 23.2873C38.7913 23.8522 37.6558 24.1342 36.4051 24.1342C35.0854 24.1342 33.882 23.8252 32.7942 23.2062C31.7065 22.5863 30.8461 21.7258 30.2135 20.6239C29.5805 19.5211 29.2644 18.2759 29.2644 16.8884C29.2644 15.5 29.5805 14.2512 30.2135 13.1421C30.8461 12.0334 31.7065 11.1698 32.7942 10.5508C33.882 9.93091 35.0854 9.62097 36.4051 9.62097C37.9142 9.62097 39.2496 9.99534 40.4121 10.7436C41.5755 11.4923 42.4224 12.547 42.9532 13.9079H40.7291Z" fill="#344E41"/>
<path d="M45.1356 18.3769C45.1356 17.2344 45.3666 16.2316 45.829 15.3676C46.2909 14.5026 46.9267 13.8323 47.7362 13.3565C48.5452 12.8799 49.4462 12.6411 50.4394 12.6411C51.4191 12.6411 52.2691 12.8529 52.9895 13.2754C53.7108 13.6971 54.2483 14.2278 54.6013 14.8666V12.8249H56.4779V24.0117H54.6013V21.9304C54.2339 22.5827 53.6864 23.1233 52.9589 23.5522C52.2313 23.9811 51.3849 24.1955 50.4196 24.1955C49.4264 24.1955 48.5286 23.9504 47.7254 23.4603C46.9231 22.9702 46.2909 22.2831 45.829 21.3988C45.3666 20.5149 45.1356 19.5076 45.1356 18.3769ZM54.6013 18.3985C54.6013 17.5543 54.4311 16.8191 54.0917 16.1929C53.7517 15.5671 53.2925 15.0878 52.7139 14.7549C52.1363 14.4211 51.5006 14.2539 50.8068 14.2539C50.1139 14.2539 49.4817 14.4174 48.9104 14.7441C48.3386 15.0711 47.883 15.5473 47.5435 16.173C47.2036 16.7992 47.0338 17.5335 47.0338 18.3769C47.0338 19.2346 47.2036 19.9802 47.5435 20.6131C47.883 21.2465 48.3386 21.7299 48.9104 22.0638C49.4817 22.3967 50.1139 22.5629 50.8068 22.5629C51.5006 22.5629 52.1363 22.3967 52.7139 22.0638C53.2925 21.7299 53.7517 21.2465 54.0917 20.6131C54.4311 19.9802 54.6013 19.2418 54.6013 18.3985Z" fill="#344E41"/>
<path d="M69.2491 12.8249L62.5172 29.2789H60.5992L62.8017 23.8892L58.294 12.8249H60.3543L63.8625 21.889L67.3311 12.8249H69.2491Z" fill="#344E41"/>
<path d="M70.4114 18.3769C70.4114 17.2344 70.6424 16.2316 71.1048 15.3676C71.5667 14.5026 72.2025 13.8323 73.012 13.3565C73.821 12.8799 74.722 12.6411 75.7152 12.6411C76.6949 12.6411 77.5449 12.8529 78.2653 13.2754C78.9865 13.6971 79.5241 14.2278 79.8771 14.8666V12.8249H81.7537V24.0117H79.8771V21.9304C79.5097 22.5827 78.9622 23.1233 78.2347 23.5522C77.5071 23.9811 76.6607 24.1955 75.6954 24.1955C74.7021 24.1955 73.8044 23.9504 73.0012 23.4603C72.1989 22.9702 71.5667 22.2831 71.1048 21.3988C70.6424 20.5149 70.4114 19.5076 70.4114 18.3769ZM79.8771 18.3985C79.8771 17.5543 79.7069 16.8191 79.3674 16.1929C79.0275 15.5671 78.5683 15.0878 77.9897 14.7549C77.4121 14.4211 76.7764 14.2539 76.0826 14.2539C75.3896 14.2539 74.7575 14.4174 74.1862 14.7441C73.6144 15.0711 73.1588 15.5473 72.8193 16.173C72.4794 16.7992 72.3096 17.5335 72.3096 18.3769C72.3096 19.2346 72.4794 19.9802 72.8193 20.6131C73.1588 21.2465 73.6144 21.7299 74.1862 22.0638C74.7575 22.3967 75.3896 22.5629 76.0826 22.5629C76.7764 22.5629 77.4121 22.3967 77.9897 22.0638C78.5683 21.7299 79.0275 21.2465 79.3674 20.6131C79.7069 19.9802 79.8771 19.2418 79.8771 18.3985Z" fill="#344E41"/>
<path d="M86.752 14.6413C87.0784 14.0025 87.5444 13.5061 88.1495 13.1529C88.7547 12.7988 89.4921 12.6213 90.3629 12.6213V14.5404H89.873C87.7921 14.5404 86.752 15.6698 86.752 17.9282V24.0117H84.8953V12.8249H86.752V14.6413Z" fill="#344E41"/>
<path d="M102.42 12.8249V24.0117H100.564V22.3575C100.209 22.9296 99.7158 23.3756 99.0832 23.6964C98.4516 24.0158 97.7546 24.1757 96.9924 24.1757C96.1216 24.1757 95.3396 23.9955 94.6458 23.6351C93.9529 23.2738 93.4058 22.7323 93.0051 22.0115C92.604 21.2898 92.4036 20.4122 92.4036 19.3788V12.8249H94.2388V19.1337C94.2388 20.2356 94.517 21.0826 95.0744 21.6745C95.6327 22.2669 96.3945 22.5629 97.3598 22.5629C98.3525 22.5629 99.1346 22.2566 99.7064 21.6439C100.278 21.0312 100.564 20.1401 100.564 18.9697V12.8249H102.42Z" fill="#344E41"/>
<path d="M107.417 14.8864C107.785 14.2476 108.332 13.7133 109.06 13.2844C109.787 12.8556 110.634 12.6411 111.599 12.6411C112.592 12.6411 113.493 12.8799 114.302 13.3565C115.111 13.8323 115.747 14.5026 116.209 15.3676C116.673 16.2316 116.905 17.2344 116.905 18.3769C116.905 19.5076 116.673 20.5149 116.209 21.3988C115.747 22.2831 115.111 22.9702 114.302 23.4603C113.493 23.9504 112.592 24.1955 111.599 24.1955C110.647 24.1955 109.807 23.9811 109.08 23.5522C108.352 23.1233 107.798 22.5895 107.417 21.9502V29.3186H105.561V12.8249H107.417V14.8864ZM115.006 18.3769C115.006 17.5335 114.836 16.7992 114.497 16.173C114.157 15.5473 113.698 15.0711 113.119 14.7441C112.541 14.4174 111.906 14.2539 111.212 14.2539C110.532 14.2539 109.903 14.4211 109.324 14.7549C108.747 15.0878 108.284 15.5707 107.938 16.2037C107.591 16.8371 107.417 17.5687 107.417 18.3985C107.417 19.2418 107.591 19.9802 107.938 20.6131C108.284 21.2465 108.747 21.7299 109.324 22.0638C109.903 22.3967 110.532 22.5629 111.212 22.5629C111.906 22.5629 112.541 22.3967 113.119 22.0638C113.698 21.7299 114.157 21.2465 114.497 20.6131C114.836 19.9802 115.006 19.2346 115.006 18.3769Z" fill="#344E41"/>
<path d="M118.658 18.3769C118.658 17.2344 118.889 16.2316 119.351 15.3676C119.813 14.5026 120.449 13.8323 121.258 13.3565C122.067 12.8799 122.968 12.6411 123.961 12.6411C124.941 12.6411 125.791 12.8529 126.511 13.2754C127.233 13.6971 127.77 14.2278 128.123 14.8666V12.8249H130V24.0117H128.123V21.9304C127.756 22.5827 127.208 23.1233 126.481 23.5522C125.753 23.9811 124.907 24.1955 123.942 24.1955C122.948 24.1955 122.051 23.9504 121.247 23.4603C120.445 22.9702 119.813 22.2831 119.351 21.3988C118.889 20.5149 118.658 19.5076 118.658 18.3769ZM128.123 18.3985C128.123 17.5543 127.953 16.8191 127.614 16.1929C127.274 15.5671 126.814 15.0878 126.236 14.7549C125.658 14.4211 125.023 14.2539 124.329 14.2539C123.636 14.2539 123.004 14.4174 122.432 14.7441C121.861 15.0711 121.405 15.5473 121.065 16.173C120.726 16.7992 120.556 17.5335 120.556 18.3769C120.556 19.2346 120.726 19.9802 121.065 20.6131C121.405 21.2465 121.861 21.7299 122.432 22.0638C123.004 22.3967 123.636 22.5629 124.329 22.5629C125.023 22.5629 125.658 22.3967 126.236 22.0638C126.814 21.7299 127.274 21.2465 127.614 20.6131C127.953 19.9802 128.123 19.2418 128.123 18.3985Z" fill="#344E41"/>
</svg>
